<svg xmlns="http://www.w3.org/2000/svg" xmlns:xlink="http://www.w3.org/1999/xlink" fill="none" version="1.1" width="24" height="22" viewBox="0 0 24 22"><defs><clipPath id="master_svg0_415_0962721"><rect x="0" y="0" width="24" height="22" rx="0"/></clipPath><clipPath id="master_svg1_415_270315"><rect x="0" y="-1" width="24" height="24" rx="0"/></clipPath></defs><g clip-path="url(#master_svg0_415_0962721)"><g clip-path="url(#master_svg1_415_270315)"><g><path d="M10.4280167015625,2.39599609375L10.4280167015625,8.179995993750001L6.5880165015625,4.33999609375L8.5320172015625,2.39599609375L10.4280167015625,2.39599609375ZM5.0880167015625,5.80399629375L8.9040165015625,9.63199619375L3.1920166015625,9.63199619375L3.1920166015625,7.69999599375L5.0880167015625,5.80399629375Z" fill="#9BD219" fill-opacity="1" style="mix-blend-mode:passthrough"/></g><g><path d="M10.4280167015625,8.65999599375L10.4280167015625,9.63199619375L9.3840175015625,9.63199619375L5.0880167015625,5.32399629375L3.1920166015625,7.21999649375L3.1920166015625,2.39599609375L8.0520167015625,2.39599609375L6.1080167015625,4.33999609375L10.4280167015625,8.65999599375Z" fill="#9BD219" fill-opacity="1" style="mix-blend-mode:passthrough"/></g><g><path d="M5.0880167015625,16.37598781640625L3.1920166015625,14.47998711640625L3.1920166015625,12.52398681640625L8.940016701562499,12.52398681640625L5.0880167015625,16.37598781640625Z" fill="#262670" fill-opacity="1" style="mix-blend-mode:passthrough"/></g><g><path d="M10.4280167015625,13.49598663640625L6.1080167015625,17.80398801640625L8.0520177015625,19.74798731640625L3.1920166015625,19.74798731640625L3.1920166015625,14.95998641640625L5.0880167015625,16.85598661640625L9.408017201562501,12.52398681640625L10.4280167015625,12.52398681640625L10.4280167015625,13.49598663640625Z" fill="#262670" fill-opacity="1" style="mix-blend-mode:passthrough"/></g><g><path d="M6.5880126953125,17.80401348359375L10.4280125953125,13.97601318359375L10.4280125953125,19.74801298359375L8.5320122953125,19.74801298359375L6.5880126953125,17.80401348359375Z" fill="#262670" fill-opacity="1" style="mix-blend-mode:passthrough"/></g><g><path d="M20.543945789062498,12.52398773193357L20.543945789062498,14.611987116406251L18.7919454890625,16.37598661640625L14.9399453890625,12.52398681640625L20.543945789062498,12.52398773193357ZM17.1479453890625,17.80398801640625L15.2039459890625,19.74798731640625L13.3199462890625,19.74798731640625L13.3199462890625,13.97598751640625L17.1479453890625,17.80398801640625Z" fill="#EFA822" fill-opacity="1" style="mix-blend-mode:passthrough"/></g><g><path d="M20.5439467890625,15.09198591640625L20.5439467890625,19.747986316406248L15.6839468890625,19.747986316406248L17.6279463890625,17.80398651640625L13.3199462890625,13.49598663640625L13.3199462890625,12.52398681640625L14.4599462890625,12.52398681640625L18.7919458890625,16.855987516406252L20.5439467890625,15.09198591640625Z" fill="#EFA822" fill-opacity="1" style="mix-blend-mode:passthrough"/></g><g><path d="M17.1479465890625,4.33999609375L13.3199462890625,8.179995993750001L13.3199462890625,2.39599609375L15.2039459890625,2.39599609375L17.1479465890625,4.33999609375Z" fill="#98267D" fill-opacity="1" style="mix-blend-mode:passthrough"/></g><g><path d="M20.5439471890625,2.39599700927732L20.5439471890625,7.08799649375L18.7919463890625,5.32399629375L14.4959464890625,9.63199619375L13.3199462890625,9.63199619375L13.3199462890625,8.65999599375L17.6279468890625,4.33999609375L15.6839475890625,2.39599609375L20.5439471890625,2.39599700927732Z" fill="#98267D" fill-opacity="1" style="mix-blend-mode:passthrough"/></g><g><path d="M18.7919514484375,5.803985595703125L20.5439524484375,7.5679856957031255L20.5439524484375,9.631986395703125L14.9759521484375,9.631986395703125L18.7919514484375,5.803985595703125Z" fill="#98267D" fill-opacity="1" style="mix-blend-mode:passthrough"/></g><g><path d="M14.171984555,10.399993896484375L13.583984375,11.011993706484375L14.195984185,10.399993896484375L14.171984555,10.399993896484375ZM14.075984205,11.659993896484375L14.171984555,11.755994296484374L14.075984205,11.659993896484375Z" fill="#9BD219" fill-opacity="1" style="mix-blend-mode:passthrough"/></g><g><path d="M14.148012595312501,1.7720060035156249L12.5520121953125,1.7720060035156249L12.5520121953125,8.780005503515625L11.8680126953125,9.416006103515626L11.1960128953125,8.780005503515625L11.1960128953125,1.7720060035156249L9.5880126953125,1.7720060035156249L11.8680126953125,-0.399993896484375L14.148012595312501,1.7720060035156249Z" fill="#EFA822" fill-opacity="1" style="mix-blend-mode:passthrough"/></g><g><path d="M2.56799599375,8.7919921875L0.39599609375,11.0719921875L2.56799599375,13.351992087500001L2.56799599375,11.7559916875L9.57599549375,11.7559916875L10.21199609375,11.0719921875L9.57599549375,10.3999923875L2.56799599375,10.3999923875L2.56799599375,8.7919921875Z" fill="#98267D" fill-opacity="1" style="mix-blend-mode:passthrough"/></g><g><path d="M9.5880126953125,20.383996926171875L11.8680126953125,22.543996826171878L14.148012595312501,20.383996926171875L12.5520121953125,20.383996926171875L12.5520121953125,13.375996946171876L11.8680126953125,12.727996826171875L11.1960128953125,13.375996946171876L11.1960128953125,20.383996926171875L9.5880126953125,20.383996926171875Z" fill="#9BD219" fill-opacity="1" style="mix-blend-mode:passthrough"/></g><g><path d="M21.1800479515625,13.351992087500001L21.1800479515625,11.7559916875L14.1720479715625,11.7559916875L14.0760476015625,11.659991487500001L13.5240478515625,11.0719914875L13.5840478465625,11.011991287499999L14.1720479715625,10.3999913875L21.1800479515625,10.3999913875L21.1800479515625,8.7919921875L23.340047851562503,11.0719921875L21.1800479515625,13.351992087500001Z" fill="#262670" fill-opacity="1" style="mix-blend-mode:passthrough"/></g></g></g></svg>