<svg xmlns="http://www.w3.org/2000/svg" xmlns:xlink="http://www.w3.org/1999/xlink" fill="none" version="1.1" width="22" height="22" viewBox="0 0 22 22"><defs><clipPath id="master_svg0_415_0962727"><rect x="0" y="0" width="22" height="22" rx="0"/></clipPath><clipPath id="master_svg1_415_270339"><rect x="-1" y="0" width="22" height="22" rx="0"/></clipPath></defs><g clip-path="url(#master_svg0_415_0962727)"><g clip-path="url(#master_svg1_415_270339)"><g><path d="M20.0562400234375,8.0643473C19.9784770234375,7.228723,19.8082790234375,6.4031134,19.5484390234375,5.6010542L19.8507960234375,5.6963601C19.0406400234375,3.9478638,17.8040830234375,2.1810389,16.3620810234375,1.4149261C16.1643870234375,1.3049577,15.5635520234375,1.5212288,15.7573690234375,1.1546677C15.9511870234375,0.78810638,14.9045720234375,0.97871816,14.4665450234375,1.0520304C13.8695890234375,1.1436708,13.7843080234375,0.42521089,12.7609530234375,0.28225207C12.1794990234375,0.20527418,12.0283210234375,0.67813802,11.7453480234375,0.56816965C11.2104100234375,0.36656117,11.2724300234375,-0.025659289,10.4351396234375,0.36656117C10.0164938234375,0.56083858,10.6987304234375,-0.19427742,9.3187504234375,0.26758969L9.2024603234375,0C6.7371020234375,0.89440936,6.0432353234375,1.6385283,5.3493685234375,1.7045097C5.1904382234375,1.7045097,4.5740983234375,2.4083073,4.1321947234375,2.8445151C3.7445597234375,3.2110763,3.5352371234375,3.6289554,3.0158059234375,3.6949368L2.6281709234374997,5.2124996C1.9678625234375,5.7320356,1.5650156134375,6.4872909,1.5156587334375,7.298233C1.3816033034375002,6.922574,1.4180903434375,6.5111866,1.6164437534375,6.1618929C1.2288087634375,6.3085175,0.5737057934375001,6.5284538,0.9419589434375,8.2439613C1.2326852634375,9.6002369,0.8217921674375,11.147125,1.1706635934375,12.642694C1.2792014734375,13.093565,1.1706635934375,13.504113,1.3102120734375,13.742379C3.7561888234375,18.808254,6.0548639234375,22.165955,12.0438240234375,21.993673L12.1446110234375,21.803059C11.5050120234375,21.656433,10.8925490234375,21.436497,9.6094761234375,21.143246C9.1869564234375,21.047943,9.0861702234375,20.410128,8.694658723437499,20.193857C8.4814596234375,20.076555,8.0511846234375,20.105881,7.8496146234375,19.981251C7.6480446234375,19.856619,7.9465227234375,19.515717,7.3960809234375,19.67334C7.2022638234375,19.728323,7.0820975234375,19.43874,6.9386725234375,19.30678C6.7952471234375,19.17482,6.9386725234375,18.797256,6.4076128234375,18.775263C5.8765516234375,18.753273,5.9889669234375,18.137447,5.9579558234375,17.814873C5.6827345234375,17.847866,5.9308214234375,17.781883,5.6556005234375,17.910179C5.4024162234375,17.743486,5.2122540234375,17.504578,5.1129122234375,17.228378C4.8803305234375,16.176346,4.8725776234375,16.766512,4.7717929234375,16.53191C4.6489479234375,16.220564,4.5025601234375,15.917978,4.3337652234375,15.626505L4.9423523234375,15.817118L5.0431375234375,15.817118L5.1439218234375,15.531199L4.5392120234375,15.344254L5.2485847234375,15.344254C5.0741482234375,15.644834,5.2951002234375,15.457888,4.9423523234375,15.534864L4.9423523234375,15.820785L5.4501538234375,15.630174L5.4501538234375,15.344254C4.9811158234375,15.124317,4.7989273234375,15.058335,4.3337652234375,14.871389L4.5392120234375,15.062L4.5392120234375,15.157308L3.4228234234375,15.157308C2.9227738234375,14.838399,3.1049623234375,14.475504,3.0158064234375,14.017303C3.4034416234375,14.017303,3.2251289234375,14.160261,3.4034416234375,13.735049L3.0158064234375,13.925661L3.3181619234375,13.196206L3.0158064234375,13.478457C2.3529507234375,12.646363,2.6475531234375,11.378062,2.7444621234374997,10.212398C2.7835608234375,9.4133186,3.0827603234375,8.6451721,3.6011357234375,8.0130291C3.8027057234375,7.7967601,3.7174263234375,7.4705195,3.7251789234375,7.2139273L4.4345507234375,6.6457572L4.8415675234375,6.6457572C5.0160036234375,7.0123186,4.9501052234375,6.7630563,4.8415675234375,7.1186213L5.0431375234375,7.2139273C5.2059440234375,7.0269809,5.1826858234375,7.0856309,5.2447080234375,6.7410626C5.0160036234375,6.5137954,5.0857782234375,6.5284576,4.639997523437501,6.4551458C5.1706447234375,5.6241817,6.1517496234375,5.147531,7.1751303234375,5.2234993L7.2759151234375,4.9375815L6.8688984234375,5.1318593L6.7681136234375,4.8496084C7.2448191234375,4.4541249,7.8632011234375,4.2456541,8.4969659234375,4.2667718C8.6403899234375,4.2667718,8.6558947234375,3.9002111,8.7876920234375,3.8488927C12.4585930234375,2.5476003,15.8155150234375,4.0505009,17.2187500234375,7.0159807C17.2947250234375,7.2570004,17.3568380234375,7.5017319,17.4048160234375,7.7491035C17.7924500234375,8.9734173,17.2420100234375,10.35902,17.6257690234375,11.092143C17.4474560234375,11.865585,16.7923540234375,11.389056,16.7109520234375,11.755617C16.5171350234375,12.642696,16.3737100234375,13.038581,15.7845050234375,13.449131C15.5688750234375,13.63014,15.3352030234375,13.790956,15.0867590234375,13.929325C15.3358090234375,13.694167,15.5115090234375,13.398652,15.5945600234375,13.075238C13.1795930234375,15.472547,9.6288576234375,14.449842,9.0047645234375,10.798894C8.8813658234375,10.045493,9.1843786234375,9.2860279,9.8032932234375,8.7974691C11.9159050234375,6.9170089,13.2144800234375,7.6721258,14.4781720234375,8.3575964L14.2766010234375,7.6977844C13.5284660234375,7.1736021,13.8889670234375,7.2725735,14.0711560234375,6.4661393L14.0711560234375,6.3708334L13.6641390234375,6.0885801C13.7222850234375,6.3048511,13.6873960234375,6.2022142,13.8695840234375,6.4551415C13.7687990234375,6.7997093,13.8695840234375,6.6494188,13.6680150234375,6.8217025C13.3268960234375,7.0306435,13.1292010234375,6.9793248,12.6524110234375,6.9170084L12.7531950234375,6.6310916L12.4508410234375,6.3451743C12.4508410234375,6.5981011,12.3578080234375,6.4038239,12.4508410234375,6.7117352C9.5862179234375,6.9243407,7.4968652234375,8.4309063,8.3923020234375,12.301794C8.425040223437499,12.623936,8.4925837234375,12.94206,8.5938730234375,13.251187L8.3923020234375,13.438132L8.291516323437499,12.869964L7.9852857234375,12.869964L7.8845005234375,13.155881C7.5976505234375,12.602374,7.8651190234375,13.386815,8.7993192234375,14.29222C8.8903780234375,14.388078,8.9874620234375,14.478662,9.0900459234375,14.563476C10.1754236234375,15.296597,11.6639410234375,16.311972,13.6641390234375,15.619171L13.8695840234375,15.619171L13.8695840234375,15.523864L11.5437740234375,15.237946L11.4429910234375,15.051C13.8695840234375,15.582514,15.4627640234375,14.86772,16.8194860234375,14.009967C17.1179640234375,13.643405,17.0792030234375,13.493115,17.3234120234375,13.815689C17.7614400234375,13.449128,17.4125690234375,13.240187,17.6296420234375,12.869961C17.7769450234375,12.617033,18.3700260234375,12.5034,18.6452480234375,12.111178L19.5561890234375,9.17869L19.1685580234375,9.17869C19.2383310234375,8.8707781,19.6802330234375,8.4455681,19.0677700234375,8.1376553C19.0096240234375,8.1046648,19.2732140234375,8.1083307,19.2693400234375,8.0460148C19.2265050234375,7.5390253,19.0535280234375,7.0495691,18.7654130234375,6.6200924C19.5174270234375,7.0856252,19.5910760234375,8.0863361,19.9825880234375,8.8927708L19.9825880234375,9.0833845L20.0833740234375,9.0833845L20.0833740234375,8.0643473L20.0562400234375,8.0643473ZM9.1016760234375,12.792987L8.8845997234375,12.224816L10.3033428234375,13.456462L9.1016760234375,12.792987ZM2.1242460234375002,4.5490251L1.5970625234375,4.4537182L1.5970625234375,5.3078065C1.9769447234375,5.0805387,2.0273373234375,5.0842047,2.1048643234375,4.5490251L2.1242460234375002,4.5490251ZM15.1875450234375,8.3392668C14.9200790234375,8.5883636,14.7788630234375,8.934227,14.7999110234375,9.288662L15.1061420234375,9.475606C15.4616940234375,9.186141,15.5065220234375,8.6806965,15.2069270234375,8.3392668L15.1875450234375,8.3392668ZM18.5328330234375,11.942563C19.1297910234375,11.693301,19.7732640234375,10.696256,19.3468670234375,9.8568306L18.5328330234375,11.938899L18.5328330234375,11.942563ZM14.5789580234375,10.234387C14.2223340234375,10.487317,14.1293010234375,10.520305,14.0711560234375,11.088475L14.3735120234375,11.279087L14.7805290234375,11.088475C14.9674600234375,10.770311,15.0040450234375,10.392413,14.8813160234375,10.047441C14.6913760234375,10.337025,14.8231710234375,10.490981,14.5789580234375,10.234387ZM13.0555520234375,11.942563C13.4160510234375,11.707964,13.3268980234375,11.623655,13.4625680234375,11.466034L13.4625680234375,11.363397C12.9910120234375,11.411337,12.5153810234375,11.411337,12.0438240234375,11.363397C11.7453460234375,11.062817,11.7414700234375,10.732911,11.3344540234375,10.512975C11.7220880234375,11.268091,11.4081030234375,11.334072,12.0438240234375,11.839926C12.3419270234375,11.908332,12.6480630234375,11.940361,12.9547660234375,11.935231C12.9896550234375,11.935231,12.7997150234375,11.913239,13.0555520234375,11.935231L13.0555520234375,11.942563ZM3.5236079234375,11.183782L3.2173762234375,11.183782L3.0158059234375,11.370728C3.2328815234375,11.590664,3.1398494234375,11.524685,3.3181612234375,11.275423L3.6243930234375,11.751951L3.7251780234375,11.385391L3.5236079234375,11.198444L3.5236079234375,11.183782ZM3.9112432234375,12.415428L4.0120280234375,12.224816C3.7833237234375,12.037869,4.0120280234375,12.147839,3.7096729234375,12.224816L3.4073176234375,11.858253L3.5081024234375,12.224816L3.5081024234375,12.415428L3.8957376234375,12.415428L3.9112432234375,12.415428Z" fill="#CE0C48" fill-opacity="1" style="mix-blend-mode:passthrough"/></g></g></g></svg>