<svg xmlns="http://www.w3.org/2000/svg" xmlns:xlink="http://www.w3.org/1999/xlink" fill="none" version="1.1" width="22" height="22" viewBox="0 0 22 22"><defs><clipPath id="master_svg0_415_0962729"><rect x="0" y="0" width="22" height="22" rx="0"/></clipPath><clipPath id="master_svg1_415_270369"><rect x="-1" y="-1" width="24" height="24" rx="0"/></clipPath></defs><g clip-path="url(#master_svg0_415_0962729)"><g clip-path="url(#master_svg1_415_270369)"><g><path d="M15.3000237940625,13.4999751859375L16.7000244140625,12.0999755859375L14.9000244140625,12.2999752659375L15.3000237940625,13.4999751859375Z" fill="#157FFE" fill-opacity="1" style="mix-blend-mode:passthrough"/></g><g><path d="M13.4000244140625,14.699987692968751L15.3000238140625,13.49998769296875L14.9000244140625,12.29998779296875L13.4000244140625,14.699987692968751Z" fill="#072F6D" fill-opacity="1" style="mix-blend-mode:passthrough"/></g><g><path d="M15.4000240140625,14.6999999L15.300024614062501,13.5L13.4000244140625,14.6999999L15.4000240140625,14.6999999Z" fill="#064BA6" fill-opacity="1" style="mix-blend-mode:passthrough"/></g><g><path d="M12.699951171875,12.800024614062501L14.159950871875001,11.6500244140625L13.299951131875,10.9000244140625L12.699951171875,12.800024614062501Z" fill="#024EA7" fill-opacity="1" style="mix-blend-mode:passthrough"/></g><g><path d="M12.70000029,13.5999997L12,12.5L12.70000029,12.79999998L12.70000029,13.5999997Z" fill="#134C9B" fill-opacity="1" style="mix-blend-mode:passthrough"/></g><g><path d="M13.3000003,10.9000244140625L12.70000029,12.800024614062501L12,12.5000247140625L13.3000003,10.9000244140625Z" fill="#002D6C" fill-opacity="1" style="mix-blend-mode:passthrough"/></g><g><path d="M12.700049028125001,13.5999997L10.800048828125,13.5999997L12.000048728125,12.5L12.700049028125001,13.5999997Z" fill="#0B2C61" fill-opacity="1" style="mix-blend-mode:passthrough"/></g><g><path d="M14.300048828125,9.6999752859375L15.900048128125,8.5999755859375L16.000047528125002,10.499975785937501L14.300048828125,9.6999752859375Z" fill="#0F4EAC" fill-opacity="1" style="mix-blend-mode:passthrough"/></g><g><path d="M14.900048788125,8.29998779296875L14.300048828125,9.69998739296875L15.900048128125,8.59998777296875L14.900048788125,8.29998779296875Z" fill="#1EDEE8" fill-opacity="1" style="mix-blend-mode:passthrough"/></g><g><path d="M16.7000244140625,7.20001220703125L15.9000237540625,8.60001180703125L14.9000244140625,8.30001170703125L16.7000244140625,7.20001220703125Z" fill="#0293F8" fill-opacity="1" style="mix-blend-mode:passthrough"/></g><g><path d="M17.3000250140625,7.50001218703125L15.9000244140625,8.60001180703125L16.7000250240625,7.20001220703125L17.3000250140625,7.50001218703125Z" fill="#0A4DAA" fill-opacity="1" style="mix-blend-mode:passthrough"/></g><g><path d="M17.799951771875,5.5L18.499951171875,6.39999992L17.299951131875,7.5L16.699951171875,7.2L17.799951771875,5.5Z" fill="#0282F1" fill-opacity="1" style="mix-blend-mode:passthrough"/></g><g><path d="M19.600048828125,4.9000244140625L18.500048218125,6.4000244140625L17.800048828125,5.5000243740625L19.600048828125,4.9000244140625Z" fill="#2DDDFB" fill-opacity="1" style="mix-blend-mode:passthrough"/></g><g><path d="M17.300048828125,7.5000245140625L18.100049378125,7.7000242140625L18.500048728125,6.4000244140625L17.300048828125,7.5000245140625Z" fill="#034DAB" fill-opacity="1" style="mix-blend-mode:passthrough"/></g><g><path d="M19.1999761859375,7.2000245440625L18.0999755859375,7.7000242140625L18.4999749659375,6.4000244140625L19.1999761859375,7.2000245440625Z" fill="#0583E1" fill-opacity="1" style="mix-blend-mode:passthrough"/></g><g><path d="M19.5999987,4.9000244140625L19.19999933,7.2000246140624995L18.5,6.4000244140625L19.5999987,4.9000244140625Z" fill="#0897FF" fill-opacity="1" style="mix-blend-mode:passthrough"/></g><g><path d="M14.9000246140625,8.30001190703125L12.4000244140625,9.20001180703125L12.4000244140625,7.20001220703125L14.9000246140625,8.30001190703125Z" fill="#2EDCFC" fill-opacity="1" style="mix-blend-mode:passthrough"/></g><g><path d="M10,7.70001220703125L12.399999900000001,9.20001220703125L10.1000003,9.20001220703125L10,7.70001220703125Z" fill="#32D4FB" fill-opacity="1" style="mix-blend-mode:passthrough"/></g><g><path d="M12.399999900000001,7.20001220703125L12.399999900000001,9.20001180703125L10,7.70001187703125L12.399999900000001,7.20001220703125Z" fill="#0594FE" fill-opacity="1" style="mix-blend-mode:passthrough"/></g><g><path d="M7.0999755859375,10.100012107031251L10.0999755859375,9.20001210703125L9.999975185937501,7.70001220703125L7.0999755859375,10.100012107031251Z" fill="#0D82E4" fill-opacity="1" style="mix-blend-mode:passthrough"/></g><g><path d="M6.29999998,11.4000249140625L7.1000001,10.1000246440625L6,9.4000244140625L6.29999998,11.4000249140625Z" fill="#0199EC" fill-opacity="1" style="mix-blend-mode:passthrough"/></g><g><path d="M10,7.69998769296875L10.40000027,5.79998779296875L12.399999900000001,7.19998789296875L10,7.69998769296875Z" fill="#047DEB" fill-opacity="1" style="mix-blend-mode:passthrough"/></g><g><path d="M6.699951171875,7.29998779296875L7.099951471875,10.09998799296875L9.999951171875,7.69998809296875L6.699951171875,7.29998779296875Z" fill="#0197F9" fill-opacity="1" style="mix-blend-mode:passthrough"/></g><g><path d="M6,9.39998769296875L7.1000001,10.09998799296875L6.69999981,7.29998779296875L6,9.39998769296875Z" fill="#0581E3" fill-opacity="1" style="mix-blend-mode:passthrough"/></g><g><path d="M4.9000244140625,6.79998779296875L6.7000248140625,7.29998746296875L6.0000250140624996,9.39998749296875L4.9000244140625,6.79998779296875Z" fill="#064BAC" fill-opacity="1" style="mix-blend-mode:passthrough"/></g><g><path d="M8.699951671875,5.70001220703125L6.699951171875,7.30001190703125L9.999951171875,7.70001220703125L8.699951671875,5.70001220703125Z" fill="#31D9FB" fill-opacity="1" style="mix-blend-mode:passthrough"/></g><g><path d="M10.399951671875,5.80001205203125L9.999951471875,7.70001180703125L8.699951171875,5.70001220703125L10.399951671875,5.80001205203125Z" fill="#0298F2" fill-opacity="1" style="mix-blend-mode:passthrough"/></g><g><path d="M6.699951171875,5.4000244140625L8.699950771875,5.7000243940625L6.699951171875,7.3000243140625L6.699951171875,5.4000244140625Z" fill="#0199FC" fill-opacity="1" style="mix-blend-mode:passthrough"/></g><g><path d="M4.9000244140625,6.8000245140625L6.7000248140625,7.3000243140625L6.7000248140625,5.4000244140625L4.9000244140625,6.8000245140625Z" fill="#0080E5" fill-opacity="1" style="mix-blend-mode:passthrough"/></g><g><path d="M6.0000241140625,5L4.9000244140625,6.8L6.7000248140625,5.39999983L6.0000241140625,5Z" fill="#004AB6" fill-opacity="1" style="mix-blend-mode:passthrough"/></g><g><path d="M6.80000013,3.29998779296875L6,4.99998799296875L6.69999981,5.39998769296875L6.80000013,3.29998779296875Z" fill="#069DFA" fill-opacity="1" style="mix-blend-mode:passthrough"/></g><g><path d="M8.699950771875,5.69998769296875L6.699951171875,5.39998769296875L6.799951471875,3.29998779296875L8.699950771875,5.69998769296875Z" fill="#0780E2" fill-opacity="1" style="mix-blend-mode:passthrough"/></g><g><path d="M10.399950871875,4.70001220703125L10.399950871875,5.80001230703125L8.699951171875,5.70001240703125L10.399950871875,4.70001220703125Z" fill="#0C4FA3" fill-opacity="1" style="mix-blend-mode:passthrough"/></g><g><path d="M6.800048828125,3.29998779296875L8.700049028125001,5.69998789296875L8.300048828125,2.29998779296875L6.800048828125,3.29998779296875Z" fill="#0282E0" fill-opacity="1" style="mix-blend-mode:passthrough"/></g><g><path d="M9.300049028125,3.4999874929687502L8.700049098125,5.69998789296875L8.300048828125,2.29998779296875L9.300049028125,3.4999874929687502Z" fill="#054CAB" fill-opacity="1" style="mix-blend-mode:passthrough"/></g><g><path d="M11.6000243140625,4L10.4000244140625,4.69999981L10.4000244140625,5.8L11.6000243140625,4Z" fill="#2BD9FF" fill-opacity="1" style="mix-blend-mode:passthrough"/></g><g><path d="M9.299951131875,3.5L8.699951171875,5.7000003L11.599950771875001,4.00000012L9.299951131875,3.5Z" fill="#0A9AF6" fill-opacity="1" style="mix-blend-mode:passthrough"/></g><g><path d="M11.100048828125,1.9000244140625L9.300048828125,3.5000244140625L11.600048528125,4.0000245140625L11.100048828125,1.9000244140625Z" fill="#2DE1FF" fill-opacity="1" style="mix-blend-mode:passthrough"/></g><g><path d="M8.300048828125,2.2999753959375L9.300049028125,3.4999754859375L9.700049428125,1.5999755859375L8.300048828125,2.2999753959375Z" fill="#019BFF" fill-opacity="1" style="mix-blend-mode:passthrough"/></g><g><path d="M10.100048828125,0.4000244140625L8.300048828125,2.3000244140625L9.700048428125,1.6000242140625L10.100048828125,0.4000244140625Z" fill="#0F78DE" fill-opacity="1" style="mix-blend-mode:passthrough"/></g><g><path d="M9.899950861875,1.5000242140625L9.699951171875,1.6000243140625L10.099951471875,0.4000244140625L9.899950861875,1.5000242140625Z" fill="#54CFF8" fill-opacity="1" style="mix-blend-mode:passthrough"/></g><g><path d="M11.1000003,1.8999999L11.89999998,-0.5L11,1.1999998L11.1000003,1.8999999Z" fill="#47C6E2" fill-opacity="1" style="mix-blend-mode:passthrough"/></g><g><path d="M10.100049438125,1.6999756659375L9.700049128125,1.5999755859375L9.300048828125,3.4999755859375L11.100048828125,1.8999758059375L10.120049118125,1.6899758129375L10.100049438125,1.6999756659375Z" fill="#1577EC" fill-opacity="1" style="mix-blend-mode:passthrough"/></g><g><path d="M10.0999755859375,1.7000123270312502L11.0999757859375,1.9000122570312499L10.999975505937499,1.20001220703125L10.0999755859375,1.7000123270312502Z" fill="#0096FF" fill-opacity="1" style="mix-blend-mode:passthrough"/></g><g><path d="M10.1099768069375,1.6900000999999998L10.1199771109375,1.6900000999999998L10.1099768069375,1.6900000999999998ZM11.8999764859375,-0.5L10.1599765009375,1.6199998999999998L10.9999764559375,1.2000002L11.8999764859375,-0.5ZM10.1199761969375,1.6900000999999998L10.1099768069375,1.6900000999999998L10.0999755859375,1.7000000000000002" fill="#0D88E0" fill-opacity="1" style="mix-blend-mode:passthrough"/></g><g><path d="M10.1199847413625,1.69001203703125L10.9999850415625,1.20001220703125L10.1599850465625,1.62001219703125L10.1099853515625,1.69001227703125L10.1199847413625,1.69001203703125Z" fill="#0D88E0" fill-opacity="1" style="mix-blend-mode:passthrough"/></g><g><path d="M10.079950871875,1.67999999L10.059951151875,1.67999999L10.069951471875,1.66999993L9.899950861875,1.5L9.699951171875,1.60000008L10.079950871875,1.67999999Z" fill="#47C6E2" fill-opacity="1" style="mix-blend-mode:passthrough"/></g><g><path d="M10.099950551875,1.6999754309375L10.079950871875,1.6799755099375L9.699951171875,1.5999755859375" fill="#47C6E2" fill-opacity="1" style="mix-blend-mode:passthrough"/></g><g><path d="M10.0799371344375,1.67998298615625L10.0699368284375,1.66998291015625L10.0599365234375,1.67998298615625L10.0799371344375,1.67998298615625Z" fill="#47C6E2" fill-opacity="1" style="mix-blend-mode:passthrough"/></g><g><path d="M2.5999755859375,16L3.9999756859374997,16L3.9999756859374997,16.2000006L2.5999755859375,16.2000006L2.5999755859375,16Z" fill="#060606" fill-opacity="1" style="mix-blend-mode:passthrough"/></g><g><path d="M2.5999755859375,16L2.8999755659375,16L2.8999755659375,16.5000006L2.5999755859375,16.5000006L2.5999755859375,16ZM4.1999753859375,16L4.1999753859375,16.2000006L5.9999754859375,16.2000006L5.9999754859375,16.70000118L4.1999753859375,16.70000118L4.1999753859375,16.90000182L5.9999754859375,16.90000182L5.9999754859375,17.3000011L4.1999753859375,17.3000011L4.1999753859375,19.1000011L5.2999755859375,18.2000012L5.9999754859375,19.0000017L6.3999752859375,19.0000017L5.2999751859375,17.8000017L4.3999750859375,18.6000023L4.3999750859375,17.600003L6.1999749859375,17.600003L6.1999749859375,16.0000036621093L4.1999753859375,16ZM2.5999755859375,16.69999939L3.9999756859374997,16.69999939L3.9999756859374997,16.89999998L3.1999755459375,16.89999998L3.1999755459375,17.2999994L3.9999756859374997,17.2999994L3.9999756859374997,17.5999993L3.1999755459375,17.5999993L3.1999755459375,18.7999992L3.9999756859374997,18.7999992L3.9999756859374997,19.0999994L2.8999755659375,19.0999994L2.8999755659375,17.5999993L2.5999755859375,17.5999993L2.5999755859375,17.2999994L2.8999755659375,17.2999994L2.8999755659375,16.89999998L2.5999755859375,16.89999998L2.5999755859375,16.69999939Z" fill="#060606" fill-opacity="1" style="mix-blend-mode:passthrough"/></g><g><path d="M6.6999754309375,16L7.9999756859375,16L7.9999756859375,16.2000006L6.6999754309375,16.2000006L6.6999754309375,16ZM6.6999754309375,17.2999994L6.6999754309375,17.5999993L7.3999757159375,17.5999993L6.5999755859375,19L6.9999754159375,19L7.9999756859375,17.2999994L6.6999754309375,17.2999994ZM8.199975385937499,16L8.199975385937499,16.2000006L9.8999750859375,16.2000006L9.8999750859375,19.1000011L10.1999749859375,19.1000011L10.1999749859375,16.2000006L10.2999753859375,16.2000006L10.2999753859375,16L8.199975385937499,16Z" fill="#060606" fill-opacity="1" style="mix-blend-mode:passthrough"/></g><g><path d="M8.300048828125,16.5999755859375L9.600049128125,16.5999755859375L9.600049128125,16.7999761859375L8.300048828125,16.7999761859375L8.300048828125,16.5999755859375ZM8.300048828125,18.3999755859375L9.600049128125,18.3999755859375L9.600049128125,18.6999754859375L8.300048828125,18.6999754859375L8.300048828125,18.3999755859375Z" fill="#060606" fill-opacity="1" style="mix-blend-mode:passthrough"/></g><g><path d="M8.300048828125,16.5999755859375L8.510048818125,16.5999755859375L8.510048818125,18.6999754859375L8.300048828125,18.6999754859375L8.300048828125,16.5999755859375ZM9.400048528125,16.5999755859375L9.610048528125,16.5999755859375L9.610048528125,18.6999754859375L9.400048528125,18.6999754859375L9.400048528125,16.5999755859375Z" fill="#060606" fill-opacity="1" style="mix-blend-mode:passthrough"/></g><g><path d="M10.699951171875,16L12.399950871875,16L12.399950871875,16.2000006L10.699951171875,16.2000006L10.699951171875,16ZM12.799951071875,18.1999991L14.499951571875,18.1999991L14.499951571875,18.3999999L12.799952071875,18.3999999L12.799951071875,18.1999991ZM12.835551471875,17.4703002L14.136551371875,16.37599972L14.265251671875,16.52899897L12.964251771875,17.6232995L12.835551471875,17.4703002Z" fill="#060606" fill-opacity="1" style="mix-blend-mode:passthrough"/></g><g><path d="M12.835551471875,18.1703248140625L14.136551371875,17.0760241740625L14.265351571875,17.2290234540625L12.964351371875,18.3233241140625L12.835551471875,18.1703248140625ZM11.299951131875,18.9000239140625L12.999950871875,18.9000239140625L12.999950871875,19.1000244140625L11.299951131875,19.1000244140625L11.299951131875,18.9000239140625ZM11.299951131875,18.2000245140625L12.499951171875,18.2000245140625L12.499951171875,18.4000251140625L11.299951131875,18.4000251140625L11.299951131875,18.2000245140625ZM10.899950861875,17.6000244140625L12.499951171875,17.6000244140625L12.499951171875,17.8000251140625L10.899950861875,17.8000251140625L10.899950861875,17.6000244140625ZM10.899950861875,17.0000244340625L12.499951171875,17.0000244340625L12.499951171875,17.2000250840625L10.899950861875,17.2000250840625L10.899950861875,17.0000244340625ZM10.699951171875,16.4000244140625L14.499951571875,16.4000244140625L14.499951571875,16.6000250240625L10.69995208740232,16.6000250240625L10.699951171875,16.4000244140625Z" fill="#060606" fill-opacity="1" style="mix-blend-mode:passthrough"/></g><g><path d="M10.699951171875,19.0999994L10.899950861875,19.0999994L10.899950861875,16.39999941L10.699951171875,16.39999941M12.799951071875,19.0999994L12.999950871875,19.0999994L12.999950871875,16L12.799951071875,16M14.099951471875,19.0999994L14.299951071875,19.0999994L14.299951071875,16L14.099951471875,16M12.299951471875,17.8000001L12.499951171875,17.8000001L12.499951171875,16.9999994L12.299951471875,16.9999994M11.299951131875,19.0999994L11.499950821875,19.0999994L11.499950821875,16.39999941L11.299951131875,16.39999941M11.799950871875,19.0999994L11.999950571875,19.0999994L11.999950571875,16.39999941L11.799950871875,16.39999941" fill="#060606" fill-opacity="1" style="mix-blend-mode:passthrough"/></g><g><path d="M14.9000244140625,16L16.6000249140625,16L16.6000249140625,16.2000006L14.9000244140625,16.2000006L14.9000244140625,16ZM17.5000250140625,17.5999993L18.5000243140625,17.5999993L18.5000243140625,17.7999998L17.5000250140625,17.7999998L17.5000250140625,17.5999993ZM17.5000250140625,18.1999991L18.5000243140625,18.1999991L18.5000243140625,18.3999999L17.5000250140625,18.3999999L17.5000250140625,18.1999991ZM15.5000243740625,17.9999986L16.2000238140625,17.9999986L16.2000238140625,18.1999991L15.5000243740625,18.1999991L15.5000243740625,17.9999986ZM16.4342248140625,18.0199993L16.5775250140625,17.8803996L17.0660248140625,18.3817992L16.9227245140625,18.5213988L16.4342248140625,18.0199993ZM15.1000250140625,17.5999993L16.7000244140625,17.5999993L16.7000244140625,17.7999998L15.1000250140625,17.7999998L15.1000250140625,17.5999993ZM15.1000250140625,16.99999928L16.7000244140625,16.99999928L16.7000244140625,17.1999999L15.1000250140625,17.1999999L15.1000250140625,16.99999928ZM14.9000244140625,16.39999935L18.700024814062502,16.39999935L18.700024814062502,16.59999996L14.9000244140625,16.59999996L14.9000244140625,16.39999935Z" fill="#060606" fill-opacity="1" style="mix-blend-mode:passthrough"/></g><g><path d="M14.9000244140625,19.0999994L15.1000250140625,19.0999994L15.1000250140625,16.39999941L14.9000244140625,16.39999941M16.5000237140625,17.8000001L16.7000244140625,17.8000001L16.7000244140625,16.9999994L16.5000237140625,16.9999994M15.5000243740625,19.0999994L15.7000250240625,19.0999994L15.7000250240625,16.39999941L15.5000243740625,16.39999941M16.0000250140625,19.0999994L16.2000255140625,19.0999994L16.2000255140625,16.39999941L16.0000250140625,16.39999941M17.5000250140625,18.4000001L17.7000255140625,18.4000001L17.7000255140625,16L17.5000250140625,16M17.9000244140625,19L18.1000249140625,19L18.1000249140625,17.2999995L17.9000244140625,17.2999995" fill="#060606" fill-opacity="1" style="mix-blend-mode:passthrough"/></g><g><path d="M16.800048828125,16L17.200048208125,16L18.500047528125002,17.1000006L18.100048228125,17.1000006L16.800048828125,16Z" fill="#060606" fill-opacity="1" style="mix-blend-mode:passthrough"/></g><g><path d="M18.400048728125,16L18.000049328125,16L16.700050028125,17.1000005L17.100049328125,17.1000005L18.400048728125,16ZM15.550048828125,18.6499991L15.690049438125,18.7999992L17.080048828125,17.5699992L16.940048228125,17.4199992L15.550048828125,18.6499991Z" fill="#060606" fill-opacity="1" style="mix-blend-mode:passthrough"/></g><g><path d="M17.08994141625,17.28997802734375L16.93994140625,17.41997740734375L17.07994201625,17.56997740734375L17.22994202625,17.42997680734375L17.08994141625,17.28997802734375Z" fill="#060606" fill-opacity="1" style="mix-blend-mode:passthrough"/></g><g><path d="M17.2299560446875,17.42999267578125L17.0799560546875,17.56999328578125L17.3699566746875,17.85999387578125L17.5199566446875,17.72999450578125L17.2299560446875,17.42999267578125Z" fill="#060606" fill-opacity="1" style="mix-blend-mode:passthrough"/></g><g><path d="M17.5299741859375,17.719970703125L17.5199747859375,17.729970091925L17.6399747859375,17.859969463125L17.4999742859375,17.999970083125L17.3699748859375,17.859969463125L16.0999755859375,18.949968803125L16.2399761859375,19.099968803125L17.6799760859375,17.869968863125L17.5299741859375,17.719970703125Z" fill="#060606" fill-opacity="1" style="mix-blend-mode:passthrough"/></g><g><path d="M17.6399950971875,17.85997984875L17.5199951071875,17.72998046875L17.3699951171875,17.85997984875L17.4999944971875,17.99998044875L17.6399950971875,17.85997984875Z" fill="#060606" fill-opacity="1" style="mix-blend-mode:passthrough"/></g><g><path d="M5.0999755859375,19.70001220703125L5.4999754159375,19.70001220703125L5.4999754159375,21.30001150703125L5.0999755859375,21.30001150703125L5.0999755859375,19.70001220703125Z" fill="#060606" fill-opacity="1" style="mix-blend-mode:passthrough"/></g><g><path d="M6.599970803125,19.70001220703125L7.099970903125,19.70001220703125L5.999970853125,20.50001281703125L7.299970603125,21.40001270703125L6.699970703125,21.40001270703125L5.469970703125,20.50001281703125L6.599970803125,19.70001220703125ZM7.299970603125,19.70001220703125L7.799970403125,19.70001220703125L8.499970703125,20.30001216703125L9.299970403125,19.70001220703125L9.799970103125,19.70001220703125L8.699970203125,20.50001281703125L8.699970203125,21.40001270703125L8.299969903125,21.40001270703125L8.299969903125,20.50001281703125L7.299970603125,19.70001220703125ZM10.199971203125,19.70001220703125L10.599971303124999,19.70001220703125L10.599971303124999,21.10001280703125L11.899972003125,21.10001280703125L11.899972003125,21.40001270703125L10.199972103124999,21.40001270703125L10.199971203125,19.70001220703125ZM12.399970503125001,19.70001220703125L12.799970603125,19.70001220703125L12.799970603125,21.40001270703125L12.399970503125001,21.40001270703125L12.399970503125001,19.70001220703125ZM13.499971403125,19.70001220703125L13.899971003125,19.70001220703125L15.699970703125,21.00001160703125L15.699970703125,19.70001220703125L16.099970703125003,19.70001220703125L16.099970703125003,21.40001270703125L15.699970703125,21.40001270703125L13.899971003125,20.10001340703125L13.899971003125,21.40001270703125L13.499971403125,21.40001270703125L13.499971403125,19.70001220703125Z" fill="#060606" fill-opacity="1" style="mix-blend-mode:passthrough"/></g><g><path d="M6.000048638125,13.29998779296875L7.2000482281250004,14.09998744296875L5.300048828125,14.09998744296875L6.000048638125,13.29998779296875Z" fill="#092C73" fill-opacity="1" style="mix-blend-mode:passthrough"/></g><g><path d="M7.5,12.29998779296875L7.1999999,14.09998779296875L6,13.29998799296875L7.5,12.29998779296875Z" fill="#014CB0" fill-opacity="1" style="mix-blend-mode:passthrough"/></g><g><path d="M6.30000046,11.4000244140625L7.5,12.3000243940625L6,13.300024614062501L6.70000029,12.4000246140625L6.30000046,11.4000244140625Z" fill="#127BDA" fill-opacity="1" style="mix-blend-mode:passthrough"/></g><g><path d="M7.100049018125,10.0999755859375L6.300048828125,11.3999758859375L7.500048428125,12.2999758859375L7.100049018125,10.0999755859375Z" fill="#0A2A6D" fill-opacity="1" style="mix-blend-mode:passthrough"/></g><g><path d="M10.0999755859375,9.20001220703125L7.4999758859375,12.300012307031249L7.0999755859375,10.10001218703125L10.0999755859375,9.20001220703125Z" fill="#0748A8" fill-opacity="1" style="mix-blend-mode:passthrough"/></g><g><path d="M9.9000006,11.20001180703125L10.1000003,9.20001220703125L8.5,11.110011807031249L9.9000006,11.20001180703125Z" fill="#04297A" fill-opacity="1" style="mix-blend-mode:passthrough"/></g><g><path d="M12.1000247140625,10.10001218703125L9.9000244140625,11.20001180703125L10.1000241040625,9.20001220703125L12.1000247140625,10.10001218703125Z" fill="#0081DC" fill-opacity="1" style="mix-blend-mode:passthrough"/></g><g><path d="M12.3999752859375,9.20001220703125L12.0999751859375,10.10001218703125L10.0999755859375,9.20001220703125L12.3999752859375,9.20001220703125Z" fill="#034DAB" fill-opacity="1" style="mix-blend-mode:passthrough"/></g><g><path d="M14.2999758859375,9.70001187703125L12.0999755859375,10.10001218703125L12.3999755659375,9.20001220703125L14.2999758859375,9.70001187703125Z" fill="#0581E4" fill-opacity="1" style="mix-blend-mode:passthrough"/></g><g><path d="M14.9000246140625,8.29998779296875L14.300024614062501,9.69998739296875L12.4000244140625,9.199987712968749L14.9000246140625,8.29998779296875Z" fill="#0197F8" fill-opacity="1" style="mix-blend-mode:passthrough"/></g><g><path d="M12.0999755859375,10.10001247703125L13.2999754859375,10.90001210703125L14.2999758859375,9.70001220703125L12.0999755859375,10.10001247703125Z" fill="#0046A3" fill-opacity="1" style="mix-blend-mode:passthrough"/></g><g><path d="M16.000048828125,10.50001185703125L14.300049228125,9.70001220703125L13.300048828125,10.90001210703125L16.000048828125,10.50001185703125Z" fill="#0297FE" fill-opacity="1" style="mix-blend-mode:passthrough"/></g><g><path d="M14.900048228125,12.3L16.000048828125,10.5L13.300048828125,10.9000003L14.900048228125,12.3Z" fill="#0681E8" fill-opacity="1" style="mix-blend-mode:passthrough"/></g><g><path d="M16.7000244140625,12.1000003L16.0000250140625,10.5L14.9000244140625,12.3L16.7000244140625,12.1000003Z" fill="#074AA5" fill-opacity="1" style="mix-blend-mode:passthrough"/></g></g></g></svg>