<svg xmlns="http://www.w3.org/2000/svg" xmlns:xlink="http://www.w3.org/1999/xlink" fill="none" version="1.1" width="22" height="22" viewBox="0 0 22 22"><defs><clipPath id="master_svg0_415_0962716"><rect x="0" y="0" width="22" height="22" rx="0"/></clipPath><clipPath id="master_svg1_415_0962608"><rect x="0" y="0" width="24" height="24" rx="0"/></clipPath></defs><g clip-path="url(#master_svg0_415_0962716)"><g clip-path="url(#master_svg1_415_0962608)"><g><path d="M9.109742121875,6.77141722953125L9.174884821875,8.28513136953125L8.122313021875,10.25827406953125L6.476598651875,13.481130569531249L6.149169921875,16.17941666953125L7.332027121875,19.99541676953125L10.030313221875,21.50913176953125L14.110313421875,21.50913176953125L17.924599921875,18.61370276953125L19.635456921875,14.074274969531249L15.689171821875,9.27427436953125L14.569743121875,6.57598876953125L9.109742121875,6.77141722953125Z" fill="#ECEFF1" fill-opacity="1" style="mix-blend-mode:passthrough"/></g><g><path d="M18.450832242187502,10.52229919921875C17.3982622421875,9.00858399921875,16.5428332421875,8.08801359921875,16.0834032421875,6.18001369921875C15.6222622421875,4.27201369921875,16.2154042421875,4.79829929921875,15.8194032421875,3.15429969921875C15.6677982421875,2.46677849921875,15.3772812421875,1.81749369921875,14.9656896421875,1.24629949921875C14.5714044421875,0.78515660921875,14.1102609421875,0.52287095921875,13.8462610421875,0.45772808921875C13.2548322421875,0.12687094921875,11.8731184421875,-0.39941475078125,10.160546742187499,0.52287095921875C8.3862609421875,1.44344229921875,8.5834033421875,3.41658539921875,8.9125464421875,7.43144269921875C8.9125464421875,7.69372799921875,8.8456890421875,8.02287099921875,8.7154033421875,8.28515629921875C8.4514036421875,8.87829969921875,7.990260642187501,9.40458489921875,7.5959746421875,9.86401369921875C7.1365461421875,10.52230019921875,6.6754032421875,11.18058519921875,6.3462601421875,11.90401319921875C5.5576890721875,13.41772819921875,4.8325460821875,15.32401419921875,5.0296888721875,16.04915619921875C5.3588319421875,15.98229919921875,9.5039744421875,22.29772719921875,9.5039744421875,22.42972719921875C9.7679739421875,22.36458419921875,10.8856892421875,22.36458419921875,11.8731174421875,22.36458419921875C13.2548322421875,22.29772719921875,14.0434036421875,22.23258419921875,15.1628322421875,22.49658619921875C15.1628322421875,22.29772719921875,15.0959752421875,22.10229919921875,15.0959752421875,21.90344219921875C15.0959752421875,21.50915519921875,15.1628322421875,21.18001519921875,15.2279732421875,20.72058519921875C15.2931162421875,20.39144119921875,15.3599742421875,20.06229819921875,15.4251172421875,19.66629819921875C14.7668314421875,20.25944119921875,13.5822601421875,20.91772619921875,12.4645452421875,21.11487019921875C11.477117042187501,21.31201219921875,9.8331165421875,20.98286819921875,9.042831442187499,19.99544119921875C9.109688742187501,19.99544119921875,9.241688742187499,19.99544119921875,9.3068308421875,19.93029819921875C9.5039744421875,19.86515419921875,9.7011165421875,19.79829819921875,9.7679739421875,19.66629819921875C9.9651174421875,19.33715419921875,9.8331165421875,19.00972519921875,9.7011165421875,18.81086919921875C9.5691170421875,18.61372719921875,8.5834024421875,17.89029919921875,8.123973342187501,17.49601319921875C7.6611163421874995,17.10172619921875,7.3988304421875,16.90458519921875,7.1365447421875,16.64058519921875L6.6102612421875,16.11430019921875C6.4782613421874995,15.98229919921875,6.4114041421875,15.85201319921875,6.3462611421875,15.78515619921875C6.2142613421875,15.45601319921875,6.1491183421875,15.06172719921875,6.2142613421875,14.53544219921875C6.2811186421875,13.81201319921875,6.5434043421875,13.21887119921875,6.8725469421875,12.56230019921875C7.0175495421875,12.29444519921875,7.1713476421875,12.03144519921875,7.3336899421875,11.77372819921875C7.3336899421875,11.77372819921875,6.2142613421875,14.53544319921875,6.8074040421875,15.39087219921875C6.8074040421875,15.39087219921875,6.8725469421875,14.53544319921875,7.1365470421875,13.68001419921875C7.3336899421875,13.08858619921875,7.662832942187499,12.23315819921875,8.0571179421875,11.77201419921875C8.4514036421875,11.31087219921875,9.4388318421875,9.60172839921875,9.5039753421875,8.54915809921875C9.5039753421875,8.08801559921875,9.569118042187501,7.62687299921875,9.569118042187501,7.29772999921875C9.3068318421875,7.03544429921875,13.9114027421875,6.37715819921875,14.1754045421875,7.10058689921875C14.2405462421875,7.36458729921875,15.1628322421875,9.73201469921875,15.6891192421875,10.98344319921875C15.9514042421875,11.57487219921875,16.2805482421875,12.10115819921875,16.4776902421875,12.75944419921875C16.6748322421875,13.48287319921875,16.8068332421875,14.47030019921875,16.8068332421875,15.45601519921875C16.8068332421875,15.65315719921875,16.8068332421875,15.98230119921875,16.741689242187498,16.31315819921875C16.8719752421875,16.31315819921875,19.4382622421875,13.54801419921875,16.4125472421875,11.24572819921875C16.4125472421875,11.24572819921875,18.2536902421875,12.10115719921875,18.3205462421875,13.81201319921875C18.3856892421875,15.19372719921875,17.794261242187503,16.31144119921875,17.6622602421875,16.50858719921875C17.7274032421875,16.50858719921875,19.043974242187502,17.10172819921875,19.1091172421875,17.10172819921875C19.3731162421875,17.10172819921875,19.8976882421875,16.90458719921875,19.8976882421875,16.90458719921875C19.966259242187498,16.70572819921875,20.161688242187502,16.17944319921875,20.161688242187502,15.98230119921875C20.6228292421875,14.47030019921875,19.503402242187498,12.03601519921875,18.450832242187502,10.52229919921875Z" fill="#263238" fill-opacity="1" style="mix-blend-mode:passthrough"/></g><g><path d="M9.239990234375,4.865148316015625C9.239990234375,5.334862716015625,9.404561754375,5.768576816015625,9.668561364375,6.003433916015625C9.905230644375,6.238567816015625,10.287321334375001,6.238567816015625,10.523989834375,6.003433916015625C10.787989334375,5.768576816015625,10.952560934375,5.334862716015625,10.952560934375,4.865148316015625C10.952560934375,4.393719916015625,10.787989334375,3.960005346015625,10.523989834375,3.725148316015625C10.287320534375,3.490014346015625,9.905230644375,3.490014346015625,9.668561364375,3.725148316015625C9.404561754375,3.960005346015625,9.239990234375,4.393719916015625,9.239990234375,4.865148316015625ZM11.938276034375,4.800005316015625C11.938276034375,5.338290916015625,12.150847934375001,5.838862416015624,12.497133234375,6.1097193160156245C12.843418634375,6.378862416015625,13.268561834375,6.378862416015625,13.616562334375,6.1097193160156245C13.962847734375,5.838862416015624,14.175419334375,5.338290416015624,14.175419334375,4.798290516015625C14.175419334375,3.963433506015625,13.674848034375,3.284576416015625,13.055990234374999,3.284576416015625C12.438847034375,3.284576416015625,11.938276034375,3.963433506015625,11.938276034375,4.798290516015625L11.938276034375,4.800005316015625Z" fill="#ECEFF1" fill-opacity="1" style="mix-blend-mode:passthrough"/></g><g><path d="M10.2171353134375,5.79427634453125C10.4691351034375,5.76341954453125,10.6285641234375,5.38627624453125,10.5737066234375,4.95427638453125C10.5205639634375,4.52227661453125,10.2702779734375,4.19656219553125,10.0182781834375,4.22913345353125C9.7662783834375,4.25999038653125,9.6068493644375,4.63713362453125,9.6599920654375,5.06913346453125C9.7148495464375,5.5028475445312495,9.9651345634375,5.8268476445312505,10.2171353134375,5.79599074453125L10.2171353134375,5.79427634453125ZM12.3325636734375,5.06227660453125C12.3325636734375,5.53370504453125,12.6274211734375,5.91770504453125,12.9908497734375,5.91770504453125C13.354278573437501,5.91770504453125,13.6491360734375,5.53370504453125,13.6491360734375,5.06056225453125C13.6491360734375,4.58913388453125,13.354278573437501,4.20684814453125,12.9908497734375,4.20684814453125C12.6274211734375,4.20684814453125,12.3325636734375,4.58913388453125,12.3325636734375,5.06227660453125Z" fill="#212121" fill-opacity="1" style="mix-blend-mode:passthrough"/></g><g><path d="M21.74061603125,19.536013960937503C21.47833103125,19.4040129609375,21.01718903125,19.2068699609375,20.62290203125,18.6137279609375C20.42576003125,18.2845849609375,20.49090203125,17.3640129609375,20.16176003125,16.968014960937502C19.96461703125,16.7057289609375,19.70233203125,16.8377289609375,19.63547503125,16.8377289609375C19.04404603125,16.9697299609375,17.66233203125,17.8902999609375,16.74176003125,16.8377289609375C16.60975903125,16.7057289609375,16.41261703125,16.508585960937502,16.08347403125,16.508585960937502C15.75433103125,16.508585960937502,15.62233203125,16.640586960937497,15.49033103125,16.9028729609375C15.36004603125,17.1668719609375,15.36004603125,17.3657299609375,15.36004603125,18.0223009609375C15.36004603125,18.5485859609375,15.36004603125,19.1400149609375,15.29318903125,19.6011569609375C15.16290303125,20.7188709609375,14.96404503125,21.3771569609375,14.96404503125,22.0354439609375C14.96404503125,22.7588709609375,15.16290303125,23.2183019609375,15.42518803125,23.4171579609375C15.62233003125,23.6142999609375,15.95147303125,23.7462999609375,16.67661703125,23.7462999609375C17.398331031250002,23.7462999609375,17.85947403125,23.4822999609375,18.32061603125,23.0228729609375C18.64975903125,22.6937289609375,18.91204403125,22.5617309609375,19.83261703125,21.9034439609375C20.55604403125,21.4440159609375,21.67547403125,20.8508739609375,21.87261603125,20.6537289609375C22.00461803125,20.5217289609375,22.20175903125,20.4565869609375,22.20175903125,20.0623009609375C22.20175903125,19.7331579609375,21.93775903125,19.6011589609375,21.74061603125,19.536013960937503ZM8.516616831250001,19.733155960937502C7.86004543125,18.6805849609375,7.79318813125,18.4817269609375,7.33375933125,17.8251559609375C6.93947413125,17.1668699609375,6.08233113125,15.9171569609375,5.55604533125,15.9171569609375C5.16175963125,15.9171569609375,4.96461703125,16.1142999609375,4.70233103125,16.3782999609375C4.43833113125,16.640584960937503,4.1760454312499995,17.2320139609375,3.71490243125,17.561156960937502C3.32061673125,17.8902999609375,2.20118824125,17.8251559609375,1.93890247125,18.2194429609375C1.67490249825,18.613729960937498,2.20118824125,19.206871960937498,2.20118824125,20.1925859609375C2.20118824125,20.5868719609375,1.87204540125,20.8508719609375,1.80690254225,21.114870960937502C1.74175968125,21.4440139609375,1.67490249825,21.6411569609375,1.80690254225,21.9034419609375C2.06918818125,22.2977299609375,2.39833104125,22.4297279609375,4.63547393125,22.8908709609375C5.82004543125,23.1531579609375,6.93775943125,23.8114429609375,7.66290183125,23.8783019609375C8.38633063125,23.9434449609375,9.63433073125,23.8783019609375,9.63433073125,22.1005859609375C9.70290183125,21.048015960937498,9.10975933125,20.785729960937502,8.516616831250001,19.733155960937502ZM9.76804543125,7.8240134609375005C9.37375973125,7.5617277609375,9.042902931250001,7.2977275609375,9.042902931250001,6.9034420609375005C9.042902931250001,6.5091564609375006,9.30690243125,6.3771561609375,9.70118903125,6.0480135709375C9.76804633125,5.9828706409375,10.48976043125,5.3245849609375,11.21490383125,5.3245849609375C11.93833303125,5.3245849609375,12.79376003125,5.7857278309375,13.12290403125,5.9177276509375C13.71433303125,6.0480131509375,14.30576003125,6.1800134209375,14.24061803125,6.6411563609375C14.17547503125,7.2977275609375,14.11033203125,7.429727760937499,13.45204603125,7.7588701609375C12.99090403125,7.890869860937499,12.13547503125,8.614298560937499,11.54404643125,8.614298560937499C11.28004743125,8.614298560937499,10.88576033125,8.614298560937499,10.62347603125,8.549155960937501C10.42461873125,8.4822986609375,10.09547523125,8.1548702609375,9.76633263125,7.8240134609375005L9.76804543125,7.8240134609375005Z" fill="#FFC107" fill-opacity="1" style="mix-blend-mode:passthrough"/></g><g><path d="M9.6342492703125,7.2977052664062505C9.7840231103125,7.44476106640625,9.9642702903125,7.55712266640625,10.1622494503125,7.6268484664062495C10.2942493203125,7.69370566640625,10.4913925203125,7.75884816640625,10.4913925203125,7.75884816640625L11.0828212203125,7.75884816640625C11.4119644203125,7.75884816640625,11.8713925203125,7.6268484664062495,12.3342502203125,7.3645626664062505C12.7936792203125,7.1674198664062505,12.8588216203125,7.03541956640625,13.1879647203125,6.90341976640625C13.517107920312501,6.70627701640625,13.8462510203125,6.50913417640625,13.7142501203125,6.44399124640625C13.5822501203125,6.37713390640625,13.4519644203125,6.44399124640625,12.9908213203125,6.70627701640625C12.5965359203125,6.9702770664062506,12.2673929203125,7.10056256640625,11.8731072203125,7.2977052664062505C11.6759639203125,7.3645626664062505,11.4119644203125,7.49656246640625,11.2148211203125,7.49656246640625L10.623392320312501,7.49656246640625C10.4245351203125,7.49656246640625,10.2942493203125,7.42970516640625,10.095392110312499,7.3645626664062505C9.9651061903125,7.2977052664062505,9.8982489103125,7.23256276640625,9.8331064003125,7.23256276640625C9.7011065503125,7.1674198664062505,9.4388207903125,6.90341976640625,9.3068209813125,6.83827726640625C9.3068209813125,6.83827726640625,9.1748211683125,6.83827726640625,9.2416784673125,6.90342016640625L9.6359640403125,7.29770576640625L9.6342492703125,7.2977052664062505ZM11.6091068203125,5.85084807840625C11.6759639203125,5.98284789640625,11.8062498203125,5.98284789640625,11.8731062203125,6.04799085640625C11.9382489203125,6.11484816640625,12.0033922203125,6.11484816640625,12.0033922203125,6.11484816640625C12.070249520312501,6.04799085640625,12.0033922203125,5.91770538640625,11.9382498203125,5.91770538640625C11.9382498203125,5.78570556640625,11.6091068203125,5.78570556640625,11.6091068203125,5.85084807840625ZM10.5565350203125,5.98284789640625C10.5565350203125,6.04799085640625,10.6885348203125,6.11484771640625,10.6885348203125,6.04799085640625C10.7536773203125,5.98284789640625,10.8205346203125,5.91770538640625,10.8856780203125,5.91770538640625C11.0176779203125,5.85084807840625,10.9508205203125,5.78570556640625,10.7536782203125,5.78570556640625C10.623392320312501,5.85084854040625,10.623392320312501,5.91770538640625,10.5565350203125,5.98284789640625Z" fill="#634703" fill-opacity="1" style="mix-blend-mode:passthrough"/></g><g><path d="M16.9370904575,17.62798949765625L16.9370904575,17.82513179765625C17.0690911675,18.08741759765625,17.3999481175,18.15427479765625,17.6622338875,18.15427479765625C18.0565203875,18.15427479765625,18.4508050875,17.89027519765625,18.6496630875,17.62798949765625C18.6496630875,17.56113219765625,18.7148065875,17.49598869765625,18.7799479875,17.43084719765625C18.9119488875,17.23198914765625,18.9770903875,17.10170405765625,19.0439476875,17.03656065765625C19.0439476875,17.03656065765625,18.9770903875,16.96798950765625,18.9770903875,16.90455993765625C18.9119469875,16.77255919765625,18.7148046875,16.64056029765625,18.4508050875,16.57541686765625C18.2377910875,16.50616820865625,18.0174603875,16.46187133665625,17.7942326875,16.44341613765625C17.2010900975,16.37827270465625,16.8719470175,16.57541686765625,16.6748046875,16.77255919765625C16.6748046875,16.77255919765625,16.7416619885,16.77255919765625,16.7416619885,16.83770262765625C16.8719323675,16.95498901765625,16.9440301375,17.12363278765625,16.9388043275,17.29884457765625C17.0039477375,17.43084529765625,16.9388043275,17.495986897656252,16.9388043275,17.62798759765625L16.9370904575,17.62798949765625Z" fill="#455A64" fill-opacity="1" style="mix-blend-mode:passthrough"/></g></g></g></svg>