<svg xmlns="http://www.w3.org/2000/svg" xmlns:xlink="http://www.w3.org/1999/xlink" fill="none" version="1.1" width="22" height="22" viewBox="0 0 22 22"><defs><clipPath id="master_svg0_415_0962731"><rect x="0" y="0" width="22" height="22" rx="0"/></clipPath><clipPath id="master_svg1_415_0962506"><rect x="-1" y="-1" width="24" height="24" rx="0"/></clipPath></defs><g clip-path="url(#master_svg0_415_0962731)"><g clip-path="url(#master_svg1_415_0962506)"><g><path d="M6.5999997,16.40001159703125L5.3,16.40001159703125L5.3,15.80001159803125L5,15.80001159803125L5,16.40001159703125L3.79999998,16.40001159703125L3.5,16.70001154703125L3.5,17.90001150703125L3.79999998,18.20001150703125L5,18.20001150703125L5,19.00001220703125L5.3,19.00001220703125L5.3,18.20001150703125L6.5999997,18.20001150703125L6.8999994000000004,17.90001150703125L6.8999994000000004,16.70001154703125L6.5999997,16.40001159703125ZM3.79999998,17.90001150703125L3.79999998,16.70001154703125L5,16.70001154703125L5,17.90001150703125L3.79999998,17.90001150703125ZM5.3,17.90001150703125L5.3,16.70001154703125L6.5999997,16.70001154703125L6.5999997,17.90001150703125L5.3,17.90001150703125ZM10.5,15.90001098703125L9.1500001,15.90001098703125L9,16.05001097703125L9,16.20001098703125L10.5,16.20001098703125L10.5,15.90001098703125ZM10.5999994,16.60001218703125L8.7999997,16.60001218703125L8.7999997,16.90001210703125L9.6999993,16.90001210703125L9.6999993,18.60001280703125L9.1999998,18.60001280703125L9.1999998,18.90001270703125L9.6999993,18.90001270703125L9.999999500000001,18.60001280703125L9.999999500000001,16.90001210703125L10.7999992,16.90001210703125L10.7999992,16.75001220703125L10.5999994,16.60001218703125ZM8.1999998,15.70001220703125L7.8999996,15.70001220703125L7.8999996,16.00001218703125L7.2999997,16.00001218703125L7.2999997,16.30001216703125L7.8999996,16.30001216703125L7.8999996,18.90001270703125L8.1999998,18.90001270703125L8.1999998,16.30001216703125L8.6999993,16.30001216703125L8.6999993,16.00001218703125L8.1999998,16.00001218703125L8.1999998,15.70001220703125Z" fill="#020202" fill-opacity="1" style="mix-blend-mode:passthrough"/></g><g><path d="M8.399951071875,16.5L8.699951171875,16.5L8.699951171875,18.3999994L8.399951071875,18.3999994L8.399951071875,16.5ZM7.399950861875,18.1000012L7.199951171875,18.3000017L7.199951171875,18.5000024L7.399950861875,18.5000024L7.699950841875,18.2000024L7.699950841875,16.5000018310546L7.399950861875,16.5000018310546L7.399950861875,18.1000012ZM9.299951071875,17.30000061L8.999951171875,17.30000061L8.999951171875,18.3L8.799951471875,18.5000005L8.799951471875,18.7000012L8.999951171875,18.7000012L9.299951071875,18.4000012L9.299951071875,17.30000061ZM10.599950571875,17.30000061L10.299950571875,17.30000061L10.299950571875,18.4000012L10.599950571875,18.7000012L10.799950171875,18.7000012L10.799950171875,18.5000005L10.599950571875,18.3L10.599950571875,17.30000061Z" fill="#020202" fill-opacity="1" style="mix-blend-mode:passthrough"/></g><g><path d="M12.100048808125,17.5999755859375L11.800048828125,17.5999755859375L11.800048828125,18.5999749259375L12.100048808125,18.8999749859375L12.300048498125,18.8999749859375L12.300048498125,18.6999742859375L12.100048808125,18.4999737159375L12.100048808125,18.0999743659375L12.300048498125,18.0999743659375L12.300048498125,17.7999743659375L12.100048808125,17.7999743659375L12.100048808125,17.5999755859375Z" fill="#020202" fill-opacity="1" style="mix-blend-mode:passthrough"/></g><g><path d="M12.3999749859375,15.70001403808585L12.0999749259375,15.70001403808585L12.0999749259375,15.90001463703125L11.5999752559375,15.90001463703125L11.2999752759375,16.20001464703125L11.2999752759375,18.30001450703125L11.0999755859375,18.50001530703125L11.0999755859375,18.70001580703125L11.2999752759375,18.70001580703125L11.5999752559375,18.40001580703125L11.3999755659375,18.330016407031252L11.5999752559375,18.40001580703125L11.5999752559375,16.200016437031252L11.7999749759375,16.200016437031252L11.7999749759375,16.50001644703125L11.5999752559375,16.50001644703125L11.5999752559375,16.80001640703125L11.7999749759375,16.80001640703125L11.7999749759375,17.20001580703125L11.5999752559375,17.20001580703125L11.5999752559375,17.50001580703125L12.9999749859375,17.50001580703125L12.9999749859375,16.50001644703125L12.5999745859375,16.50001644703125L12.5999745859375,16.200016437031252L12.9999749859375,16.200016437031252L12.9999749859375,15.90001646703125L12.3999749859375,15.90001646703125L12.3999749859375,15.70001403808585ZM12.0999749259375,17.20001400703125L12.0999749259375,16.80001460703125L12.2999746859375,16.80001460703125L12.2999746859375,17.20001400703125L12.0999749259375,17.20001400703125ZM12.6999748859375,16.80001460703125L12.6999748859375,17.20001400703125L12.5999745859375,17.20001400703125L12.5999745859375,16.80001460703125L12.6999748859375,16.80001460703125ZM12.2999746859375,16.50001460703125L12.0999749259375,16.50001460703125L12.0999749259375,16.20001464703125L12.2999746859375,16.20001464703125L12.2999746859375,16.50001460703125ZM14.4999758859375,15.90001280703125L14.4999758859375,15.70001220703125L14.199975685937499,15.70001220703125L14.199975685937499,15.90001280703125L13.5999757859375,15.90001280703125L13.5999757859375,15.70001220703125L13.2999758859375,15.70001220703125L13.2999758859375,15.90001280703125L13.0999760859375,15.90001280703125L13.0999760859375,16.20001280703125L13.2999758859375,16.20001280703125L13.2999758859375,17.80001210703125L13.5999757859375,17.80001210703125L13.5999757859375,16.20001280703125L14.199975685937499,16.20001280703125L14.199975685937499,16.60001218703125L13.5999757859375,16.60001218703125L13.5999757859375,16.90001210703125L14.199975685937499,16.90001210703125L14.199975685937499,17.20001220703125L13.5999757859375,17.20001220703125L13.5999757859375,17.50001220703125L14.199975685937499,17.50001220703125L14.199975685937499,17.80001210703125L14.4999758859375,17.80001210703125L14.4999758859375,16.20001280703125L14.6999764859375,16.20001280703125L14.6999764859375,15.90001280703125L14.4999758859375,15.90001280703125ZM13.0999751859375,17.80001400703125L14.6999745859375,17.80001400703125L14.6999745859375,18.10001400703125L13.099974285937499,18.10001400703125L13.0999751859375,17.80001400703125Z" fill="#020202" fill-opacity="1" style="mix-blend-mode:passthrough"/></g><g><path d="M12.7000243940625,17.5999755859375L12.4000244140625,17.5999755859375L12.4000244140625,18.5999749259375L12.7000243940625,18.8999749859375L12.9000240840625,18.8999749859375L12.9000240840625,18.6999742859375L12.7000243940625,18.4999737159375L12.7000243940625,18.0999743659375L12.9000240840625,18.0999743659375L12.9000240840625,17.7999743659375L12.7000243940625,17.7999743659375L12.7000243940625,17.5999755859375ZM13.3000243940625,18.3599749759375C13.3000243940625,18.4499749559375,13.2600240740625,18.5399749259375,13.2000240640625,18.5999749259375L13.2000240640625,18.8999749859375C13.4400241140625,18.8399749859375,13.6000243140625,18.6299749859375,13.6000243140625,18.3899749559375L13.6000243140625,18.1999755459375L13.3000243940625,18.1999755459375L13.3000243940625,18.3599749759375ZM14.5000253140625,18.1999755459375L14.2000253140625,18.1999755459375L14.2000253140625,18.3899749559375C14.2000253140625,18.6299749859375,14.3600247140625,18.8399749859375,14.6000247140625,18.8999749859375L14.6000247140625,18.5999749259375C14.5400247140625,18.5399749259375,14.5000253140625,18.4499749559375,14.5000253140625,18.3599749759375L14.5000253140625,18.1999755459375Z" fill="#020202" fill-opacity="1" style="mix-blend-mode:passthrough"/></g><g><path d="M18.6999766859375,17.79998839296875L18.6999766859375,17.49998839296875L18.3999766859375,17.49998839296875L18.3999766859375,17.29998779296875L18.0999767859375,17.29998779296875L18.0999767859375,17.49998839296875L17.7999767859375,17.49998839296875L17.7999767859375,17.79998839296875L18.0999767859375,17.79998839296875L18.0999767859375,18.29998899296875L17.9999773859375,18.29998899296875L17.9999773859375,17.89998960296875L17.7999767859375,17.89998960296875L17.7999767859375,18.59998889296875L18.0999767859375,18.59998889296875L18.0999767859375,18.99998829296875L18.3999766859375,18.99998829296875L18.3999766859375,18.59998889296875L18.6999766859375,18.59998889296875L18.6999766859375,18.29998899296875L18.3999766859375,18.29998899296875L18.3999766859375,17.79998839296875L18.6999766859375,17.79998839296875ZM15.8999755659375,17.59998777296875L15.5999755859375,17.59998777296875L15.5999755859375,18.59998719296875L15.8999755659375,18.89998709296875L16.0999761859375,18.89998709296875L16.0999761859375,18.69998659296875L15.8999755659375,18.49998589296875L15.8999755659375,18.09998655296875L16.0999761859375,18.09998655296875L16.0999761859375,17.79998657296875L15.8999755659375,17.79998657296875L15.8999755659375,17.59998777296875Z" fill="#020202" fill-opacity="1" style="mix-blend-mode:passthrough"/></g><g><path d="M16.2000255140625,15.70001403808585L15.9000256140625,15.70001403808585L15.9000256140625,15.90001463703125L15.4000250140625,15.90001463703125L15.1000250140625,16.20001464703125L15.1000250140625,18.30001450703125L14.9000244140625,18.50001530703125L14.9000244140625,18.70001580703125L15.1000250140625,18.70001580703125L15.4000250140625,18.40001580703125L15.2000243940625,18.330016407031252L15.4000250140625,18.40001580703125L15.4000250140625,16.200016437031252L15.6000255940625,16.200016437031252L15.6000255940625,16.50001644703125L15.4000250140625,16.50001644703125L15.4000250140625,16.80001640703125L15.6000255940625,16.80001640703125L15.6000255940625,17.20001580703125L15.4000250140625,17.20001580703125L15.4000250140625,17.50001580703125L16.8000256140625,17.50001580703125L16.8000256140625,16.50001644703125L16.4000262140625,16.50001644703125L16.4000262140625,16.200016437031252L16.8000256140625,16.200016437031252L16.8000256140625,15.90001646703125L16.2000255140625,15.90001646703125L16.2000255140625,15.70001403808585ZM15.9000256140625,17.20001400703125L15.9000256140625,16.80001460703125L16.1000262140625,16.80001460703125L16.1000262140625,17.20001400703125L15.9000256140625,17.20001400703125ZM16.5000256140625,16.80001460703125L16.5000256140625,17.20001400703125L16.4000262140625,17.20001400703125L16.4000262140625,16.80001460703125L16.5000256140625,16.80001460703125ZM16.1000262140625,16.50001460703125L15.9000256140625,16.50001460703125L15.9000256140625,16.20001464703125L16.1000262140625,16.20001464703125L16.1000262140625,16.50001460703125ZM17.6000261140625,17.40001270703125L17.9000261140625,17.40001270703125L17.9000261140625,16.50001281703125L18.6000256140625,16.50001281703125L18.6000256140625,16.20001280703125L17.9000261140625,16.20001280703125L17.9000261140625,15.70001220703125L17.6000261140625,15.70001220703125L17.6000261140625,16.20001280703125L16.9000268140625,16.20001280703125L16.9000268140625,16.50001281703125L17.6000261140625,16.50001281703125L17.6000261140625,17.40001270703125Z" fill="#020202" fill-opacity="1" style="mix-blend-mode:passthrough"/></g><g><path d="M17.099951211875,15.70001220703125L17.399951171875,15.70001220703125L17.399951171875,16.00001218703125L17.099951211875,16.00001218703125L17.099951211875,15.70001220703125ZM18.099952471875,15.70001220703125L18.399952371875,15.70001220703125L18.399952371875,16.00001218703125L18.099952471875,16.00001218703125L18.099952471875,15.70001220703125ZM16.499951181875,17.60001160703125L16.199951171875,17.60001160703125L16.199951171875,18.60001090703125L16.499951181875,18.90001080703125L16.699951831875,18.90001080703125L16.699951831875,18.70001030703125L16.499951181875,18.50000980703125L16.499951181875,18.10001040703125L16.699951831875,18.10001040703125L16.699951831875,17.80001040703125L16.499951181875,17.80001040703125L16.499951181875,17.60001160703125ZM16.999951841875,17.00001160703125L16.999951841875,17.30001150703125L17.399951171875,16.90001210703125L17.399951171875,16.60001218703125L17.099951211875,16.60001218703125L17.099951211875,16.90001210703125L16.999951841875,17.00001160703125ZM18.099952471875,16.60001218703125L18.099952471875,16.90001210703125L18.499951871875,17.30001150703125L18.499951871875,17.00001160703125L18.399952371875,16.90001210703125L18.399952371875,16.60001218703125L18.099952471875,16.60001218703125ZM17.279951171875,17.50001220703125L17.399951171875,17.30001150703125L17.099951211875,17.30001150703125L16.899950561875,17.62001220703125L16.899950561875,18.10001210703125L17.089949961875,17.80001210703125L17.399949471875,17.80001210703125L17.399949471875,18.10001210703125L16.899950561875,18.10001210703125L16.899948771875,18.40001220703125L17.459949371875,18.40001220703125L17.299949971875,18.60001280703125L16.899950561875,18.60001280703125L16.899950561875,18.90001270703125L17.299949971875,18.90001270703125L17.699949371875,18.40001220703125L17.699949371875,17.50001220703125L17.399949471875,17.50001220703125L17.279951171875,17.50001220703125Z" fill="#020202" fill-opacity="1" style="mix-blend-mode:passthrough"/></g><g><path d="M3.699951171875,19.79998779296875L4.099951001875,19.79998779296875L4.999950971875,21.29998769296875L4.999950971875,19.79998779296875L5.199951171875,19.79998779296875L5.399951371875,19.99998839296875L5.399951371875,21.79998829296875L4.999951471875,21.79998829296875L3.999951631875,20.19998899296875L3.999951631875,21.49998829296875L3.799951471875,21.79998829296875L3.69995162963866,21.79998829296875L3.699951171875,19.79998779296875Z" fill="#020202" fill-opacity="1" style="mix-blend-mode:passthrough"/></g><g><path d="M6.8499755859375,20.4000231940625C6.4699754159375,20.4000231940625,6.1599755849375,20.7300231440625,6.1099754329375,21.1000225140625L6.0999755859375,21.2000220140625L6.1499757359375,21.3600213140625C6.1799757329375,21.4500214140625,6.2299758959375,21.5300219140625,6.2999757359375,21.6000213140625C6.4299755659375,21.7300207140625,6.5999757059375,21.8000219140625,6.7699758959375,21.8000219140625L7.1999761859374996,21.8000219140625C7.3799761859375,21.8000219140625,7.4999761859375,21.5000219140625,7.4999761859375,21.5000219140625L6.7699758959375,21.5000219140625C6.7199761859375,21.5000219140625,6.6799758659375,21.4900225140625,6.6299757359375,21.4700219140625C6.5399757359375,21.4300226140625,6.4799757259375,21.3500219140625,6.4499757259375,21.2600219140625L6.4299755659375,21.1900226140625L7.5499758859375,21.1500232140625C7.5699754859374995,21.1500232140625,7.5899761859375,21.1300225140625,7.5899761859375,21.1100237140625C7.5799758859375,20.7100244140625,7.2499758859375,20.4000231940625,6.8499755859375,20.4000231940625ZM6.3999755659375,21.0000231140625C6.3999755659375,20.7500237840625,6.5999757059375,20.5500231940625,6.8499755859375,20.5500231940625C7.0999757859375,20.5500231940625,7.2999754859375,20.7500237840625,7.2999754859375,21.0000231140625L6.3999755659375,21.0000231140625ZM10.3999757859375,19.9000244140625L10.5999755859375,19.9000244140625L10.7999753859375,20.1000250140625L10.7999753859375,21.6000249140625L10.5999755859375,21.8000256140625L10.3999757859375,21.8000256140625L10.3999757859375,19.9000244140625ZM14.8999757859375,19.9000244140625L15.0999765859375,19.9000244140625L15.2999772859375,20.1000250140625L15.2999772859375,21.6000249140625L15.0999765859375,21.8000256140625L14.8999757859375,21.8000256140625L14.8999757859375,19.9000244140625ZM15.9999761859375,19.9000244140625L16.1999765859375,19.9000244140625L16.3999775859375,20.0400250240625L16.3999775859375,20.2000243940625L15.9999780859375,20.2000243940625L15.9999761859375,19.9000244140625ZM15.9999761859375,20.4000231940625L16.3999755859375,20.4000231940625L16.3999755859375,21.6400225140625L16.1999745859375,21.8000219140625L15.9999742859375,21.8000219140625L15.9999761859375,20.4000231940625ZM10.9999756859375,20.8000243940625L11.699975985937499,19.9000244140625L12.099976585937501,19.9000244140625L11.3999762859375,20.8000243940625L12.199975985937499,21.8000238140625L11.699975985937499,21.8000238140625L10.9999756859375,20.8000243940625ZM8.8999757859375,20.4000231940625C8.4599761859375,20.4000231940625,8.0999760859375,20.7100225640625,8.0999760859375,21.1000225140625C8.0999760859375,21.4900225140625,8.4599761859375,21.8000219140625,8.8999757859375,21.8000219140625C9.3399755859375,21.8000219140625,9.6999754859375,21.4900225140625,9.6999754859375,21.1000225140625C9.6999754859375,20.7100225640625,9.3399755859375,20.4000231940625,8.8999757859375,20.4000231940625ZM8.8999757859375,21.600023114062502C8.6199755859375,21.600023114062502,8.3999762859375,21.3800237140625,8.3999762859375,21.1000225140625C8.3999762859375,20.8200213340625,8.6199764859375,20.6000219540625,8.8999757859375,20.6000219540625C9.1799752859375,20.6000219540625,9.3999755859375,20.8200213340625,9.3999755859375,21.1000225140625C9.3999755859375,21.3800237140625,9.1799752859375,21.600023114062502,8.8999757859375,21.600023114062502ZM18.1999755859375,20.4000231940625L17.099974585937503,20.4000231940625L17.099974585937503,21.8000238140625L17.2999755859375,21.8000238140625L17.4999765859375,21.6400244140625L17.4999765859375,20.6600238040625L17.8999755859375,20.6600238040625C17.8999755859375,20.6600238040625,18.099976585937497,20.6000238040625,18.099976585937497,20.8000243940625L18.099976585937497,21.8000238140625L18.299977585937498,21.8000238140625L18.4999775859375,21.600023114062502L18.4999775859375,20.7000231740625C18.4999775859375,20.7000231740625,18.4999775859375,20.4000231940625,18.1999755859375,20.4000231940625ZM12.8999762859375,20.4000231940625L13.0999755859375,20.4000231940625L13.199975985937499,20.6000238040625L13.199975985937499,21.3000232140625C13.199975985937499,21.3000232140625,13.199975985937499,21.5000237140625,13.2999763859375,21.5000237140625L13.8999762859375,21.5000237140625L13.8999762859375,20.4000231940625L14.0999755859375,20.4000231940625L14.2999753859375,20.6000238040625L14.2999753859375,21.9000231140625C14.2999753859375,21.9000231140625,14.1999749859375,22.3000226140625,13.8999752859375,22.3000226140625L12.8999752859375,22.3000226140625L12.8999752859375,22.1000218140625L13.7999748859375,22.1000218140625C13.7999748859375,22.1000218140625,13.999974685937499,22.1000218140625,13.999974685937499,21.9000213140625L13.999974685937499,21.7000207140625L13.2999744859375,21.7000207140625C13.2999744859375,21.7000207140625,12.899974385937501,21.7000207140625,12.899974385937501,21.4000207140625L12.8999762859375,20.4000231940625Z" fill="#020202" fill-opacity="1" style="mix-blend-mode:passthrough"/></g><g><path d="M19.3000311015625,6.099972684375C19.0000311015625,5.599972684375,18.5000301015625,5.699972584375,18.5000301015625,5.699972584375C18.5000301015625,5.699972584375,17.9000301015625,5.899972884375,17.9000301015625,6.299972984375C17.9000301015625,6.699973084375,18.3000301015625,6.799972484375,18.5000301015625,6.799972484375C18.590031101562502,6.799972484375,18.6500301015625,6.749972784375,18.7000311015625,6.699972184375C18.900032101562502,6.499971884375,18.6700311015625,6.579972284375,18.600032101562498,6.599972284375C18.4000311015625,6.649972484375,18.2000321015625,6.499972384375,18.3000321015625,6.299972484375C18.340031101562502,6.229972384375,18.4300311015625,6.139972684375,18.4800321015625,6.109972484375C18.4900311015625,6.099972684375,18.5100321015625,6.099972684375,18.520031101562502,6.099972684375C18.6400311015625,6.109972484375,19.1700311015625,6.159972684375,18.900032101562502,6.699973084375C18.610031101562498,7.279973484375,17.9400321015625,6.829973184375,17.900032101562502,6.799973484375C17.8700321015625,6.759973084375,17.230033101562498,5.889973684375,18.4000331015625,5.299973484375C19.600033101562502,4.699973584375,19.100032101562498,3.599973484375,19.100032101562498,3.599973484375C19.100032101562498,3.599973484375,18.2000321015625,4.599973184375,17.5000331015625,4.899973384375C16.8800321015625,5.169973384375,16.6500341015625,6.069972984375,16.6100321015625,6.259973084375C16.6100321015625,6.279972984375,16.5900321015625,6.279972984375,16.5800321015625,6.269972784375C16.0600331015625,5.769972784375,15.1900331015625,5.539972784375,14.7600321015625,5.439972884375C14.5800311015625,5.399972884375,14.4000320015625,5.389972684375,14.2300320015625,5.409972684375C13.7600327015625,5.459972884375,12.7600317015625,5.659972684375,11.8100324015625,6.389972684375C10.510032201562499,7.389973684375,9.7100325015625,7.189972384375,9.510032701562501,7.189972384375C9.3100333015625,7.189972384375,8.7100329015625,6.989972584375,8.610033001562499,6.189972884375C8.510032701562501,5.389972684375,9.3100333015625,5.089972484375,9.510032701562501,5.089972484375C9.7100325015625,5.089972484375,10.2100329015625,5.189972384375,10.3100324015625,5.589972484375C10.4000325015625,5.969973084375,10.230032901562499,6.169972384375,10.2100320015625,6.189972884375C9.920032501562499,6.469972584375,9.6400323015625,6.209972884375,9.6100321015625,6.189972884375C9.4500318015625,5.869972684375,9.7400327015625,5.619972684375,9.8600326015625,5.529972584375C9.880032101562499,5.519972784375,9.8700328015625,5.489973084375,9.8500323015625,5.489973084375C9.6600318015625,5.489973084375,9.1100326015625,5.529972584375,9.1100326015625,6.189972884375C9.1100326015625,6.979972384375,10.0000324015625,6.989972584375,10.010032701562501,6.989972584375C11.4900327015625,6.689972884375,11.0200324015625,5.119973184375,11.010032701562501,5.089972984375C10.7500329015625,4.399972884375,9.820033101562501,4.159973184375,9.570033101562501,4.099973184375C9.5500331015625,4.099973184375,9.5500331015625,4.059973284375,9.570033101562501,4.059973284375C9.7500329015625,4.009973084375,10.2100329015625,4.089972984375,10.2100329015625,4.089972984375C10.4600334015625,4.089972984375,10.850033301562501,4.439973384375,10.9700336015625,4.549972984375C10.9800339015625,4.559972784375,11.010033601562501,4.549972984375,11.010033601562501,4.529972984375L11.010033601562501,4.199972584375C11.010033601562501,2.759972784375,10.2000337015625,2.209972584375,10.040033301562499,2.119972684375C10.0300331015625,2.109972484375,10.0300331015625,2.089972784375,10.040033301562499,2.089972784375C11.630030601562499,0.9399727843750001,11.970030801562501,-0.200027165625,12.000031001562501,-0.29002716362500003L12.000031001562501,-0.30002712462500003C11.9000306015625,-0.500027095625,11.7000308015625,-0.30002712462500003,11.7000308015625,-0.30002712462500003C11.4200306015625,0.24997288437499998,10.470030801562501,0.8899728843750001,10.3200312015625,0.989972984375C10.310030501562501,0.9999730843750001,10.2900310015625,0.989972984375,10.2900310015625,0.979972884375C10.250030501562499,0.829972884375,10.6000314015625,0.29997289437499997,10.6000314015625,0.29997289437499997C10.7000318015625,0.09997287437500002,10.6000314015625,0.09997287437500002,10.6000314015625,0.09997287437500002C10.1400309015625,0.27997291437500005,10.0200310015625,0.8899728843750001,10.0000315015625,0.989972984375C10.0000315015625,0.9999730843750001,10.0000315015625,1.009972884375,9.9900312015625,1.019972884375C9.7900314015625,1.389973084375,9.3300309015625,1.309972884375,9.3000312015625,1.309972884375C9.000031001562501,1.109972984375,8.6000309015625,1.209972884375,8.6000309015625,1.209972884375C8.3000307015625,1.209972884375,7.9000304015625,1.609972884375,7.9000304015625,1.609972884375C7.8000302015625,1.8099727843750002,7.4000308015625,1.8099727843750002,7.4000308015625,1.8099727843750002C7.0300305015625,1.8099727843750002,7.0900304015625,2.159972684375,7.1000307015625,2.199972884375C7.1000307015625,2.199972884375,7.1000307015625,2.209972884375,7.1100311015625,2.209972884375C7.3100307015625,2.399972884375,7.410031101562501,2.209972884375,7.410031101562501,2.209972884375C7.5100315015625,2.009973084375,7.7100310015625,2.109972684375,7.7100310015625,2.109972684375C8.0000308015625,2.209972884375,8.2900314015625,2.119972984375,8.3100309015625,2.109972684375L8.5100307015625,2.109972684375C8.5100307015625,2.209972884375,8.2100308015625,2.409972684375,8.2100308015625,2.409972684375C8.0200305015625,2.599972984375,7.2700305015625,2.419972884375,7.2100306015625,2.409972684375L7.2000310015625,2.409972684375L6.5000312015625,2.009972784375C6.1200311015625,1.6299726843750002,5.8300314015625005,1.609972584375,5.8000314015625,1.609972584375L5.7900316015625,1.609972584375C5.4900316015624995,1.609972584375,5.4900316015624995,1.8099724843749998,5.4900316015624995,1.8099724843749998L5.4900316015624995,1.9899725843749998C5.4900316015624995,1.999972584375,5.4800317015625,2.009972584375,5.4700314015625,2.009972584375C4.5000306705625,2.009973084375,4.7000308015625,2.699972884375,4.7000308015625,2.699972884375C4.7000308015625,2.889972884375,4.8900306515625,2.989972784375,4.9000309715625,2.999973084375L5.1900311115625,3.099972984375L5.2000309815625,3.099972984375C5.3000308315625,3.199972884375,5.6000308015625,3.299973284375,5.6000308015625,3.299973284375L5.6000308015625,3.199973384375C5.5000310015625,3.099973484375,5.5000310015625,2.999973084375,5.5000310015625,2.999973084375C5.5000310015625,2.799973284375,6.1000309015625,2.799973284375,6.1000309015625,2.799973284375C6.6000311015625,2.799973284375,7.0000315015625,2.999973084375,7.0000315015625,2.999973084375C7.270031501562499,3.089973184375,7.4600317015624995,3.259973284375,7.490031701562501,3.289973284375C7.490031701562501,3.289973284375,7.5000319015625,3.299973284375,7.5000319015625,3.309973484375C7.490031701562501,3.499973084375,7.2000320015625,3.599973484375,7.2000320015625,3.599973484375C7.1200323015624996,3.6799735843750003,6.6800318015624995,3.6999730843750003,6.5400319015625,3.6999730843750003C6.5100319015625,3.6999730843750003,6.490032001562501,3.6999730843750003,6.4600317015624995,3.6899733843750004L5.8000309015625,3.499972584375C5.8800311015624995,3.739972584375,6.2900308015625,3.8499726843750004,6.4400308015625,3.8899726843750004C6.4800305015625,3.8999724843749997,6.5100305015625,3.8999724843749997,6.5500309015625,3.8999724843749997L7.1000307015625,3.8999724843749997C7.000030501562501,3.999972384375,6.8000307015625,3.999972384375,6.8000307015625,3.999972384375L5.7000307015625005,3.999972384375C5.6500305015625,3.999972384375,5.6300307015625,3.9399723843750003,5.6200305015625,3.8699721843750003C5.6100306015625,3.799972484375,5.5300305015625,3.779972584375,5.4800303015625005,3.829972784375L5.2000309815625,4.099972684375L5.1900311115625,4.109972484375C5.1000311415625,4.469972584375,5.4300311215625,4.669972384375,5.4800313015625,4.699972584375C5.5000314015625005,4.699972584375,5.5000314015625005,4.699972584375,5.5000314015625005,4.709972384375L5.5900314015625,5.339972484375C5.5900314015625,5.359972484375,5.6200314015625,5.369972184375,5.6300312015625,5.349972284375L5.7900311015625,5.109972484375C5.8000309015625,5.099972284375,5.8000309015625,5.089971984375,5.8000309015625,5.079972284375C5.8300309015625,4.969972084375,6.0700309015625,4.719972084375,6.1000309015625,4.699972184375C6.1300310015625,4.679972184375,6.500030801562501,4.499971884375,6.6000311015625,4.499971884375C6.7000313015625,4.499971884375,6.6000311015625,4.599971784375,6.6000311015625,4.599971784375L6.3000311015624995,4.799972084375L6.2900312015625,4.799972084375C6.2500314015625005,4.859971984375,5.5900314015625,5.719972084375,5.4900311015625,6.399971984375C5.3900312815625,7.099971784375,5.5900309015625,7.899971984375,5.6900313015625,8.199972184375C5.7900316015625,8.499971384375,6.4900315015625,9.299971584375,6.5900311015625,9.499972384375C6.6900311015625,9.699971984375,6.9900310015625,9.799971984375,6.9900310015625,10.499971984375C6.9900310015625,11.199971984375,6.6900311015625,11.699971984375,6.5900311015625,11.899971984375C6.4900315015625,12.089972984375,5.9200314015625,12.669970984375,5.8900315015625,12.699970984375L4.8000306515624995,13.399972984375L4.5300306675625,13.399972984375C4.4700306695625,13.399972984375,4.4300308225625,13.459971984375,4.4600308225625,13.519972984375L4.4800309745625,13.549972984375C4.4900308215625,13.579972984375,4.5200308185625,13.599972984375,4.5500308215625,13.599972984375L6.5900307015625,13.599972984375C6.6000307015625,13.599972984375,6.6000307015625,13.599972984375,6.610030901562499,13.589972984375L6.7000313015625,13.499971984375C6.3000315015625,13.599972984375,6.5000312015625,13.299972984375,6.5000312015625,13.299972984375C6.6000311015625,12.809971984375,7.8700314015625,11.919971984375,7.9000313015625,11.899972984375L8.2900314015625,11.699972984375L8.3000317015625,11.689972984375L8.600031901562499,10.999972984375C8.6700320015625,10.859972984375,8.7400312015625,10.819972984375,8.7800317015625,10.809972984375C8.7900319015625,10.809972984375,8.810031401562501,10.799972984375,8.8200321015625,10.809972984375C12.010032201562499,11.299972984375,13.1100321015625,9.309972784375,13.1100321015625,9.309972784375C13.1100321015625,9.309972784375,13.5100317015625,8.509972584375,14.2100315015625,8.109972984375C14.9100321015625,7.709972384375,15.6100311015625,8.109972984375,15.9100311015625,8.309972784375C16.2100311015625,8.509971584375,16.3100311015625,9.309972784375,16.3100311015625,9.309972784375C16.3100311015625,9.309972784375,16.3100311015625,10.009972984375,15.6100311015625,10.309972984375C14.9100321015625,10.609972984375,14.6100321015625,10.009972984375,14.6100321015625,10.009972984375C14.4200325015625,9.719973984375,14.6000331015625,9.339972484375,14.6100321015625,9.309972784375C14.9000321015625,9.019972784375,15.1800321015625,9.199973084375,15.2100311015625,9.209972384375C15.5400311015625,9.539972284375,15.2500311015625,9.739971984375,15.1400331015625,9.789971984375C15.1200311015625,9.799972984375,15.1200311015625,9.819972984375,15.1400331015625,9.829972984375C15.5000321015625,10.059972984375,15.6900321015625,9.559972784375,15.7100321015625,9.509973484375L15.7100321015625,9.499973284375C15.9100331015625,8.799972484375,15.2100311015625,8.499972384375,15.2100311015625,8.499972384375C15.2100311015625,8.499972384375,14.6100321015625,8.199973084375,14.0100317015625,8.899972884375C13.4100323015625,9.599973684375,13.9100313015625,10.299972984375,14.1100321015625,10.799973984375C14.3100328015625,11.299973984375,16.0100331015625,12.099973984375,16.0100331015625,12.099973984375C16.1100321015625,12.099973984375,16.1100321015625,12.199973984375,16.1100321015625,12.199973984375C16.0100331015625,12.679973984375,14.6100321015625,13.539972984375,14.5100331015625,13.599973984375L14.3700304015625,13.599973984375C14.2900305015625,13.599973984375,14.2600307015625,13.699973984375,14.3200302015625,13.749972984375C14.3500299015625,13.769972984375,14.3700304015625,13.779972984375,14.3800297015625,13.789973984375C14.3900290015625,13.799973984375,14.4100294015625,13.799973984375,14.4200287015625,13.799973984375L16.3000311015625,13.799973984375C16.3000311015625,13.799973984375,16.5000311015625,13.699973984375,16.4000301015625,13.699973984375C16.3100311015625,13.699973984375,16.220031101562498,13.619973984375,16.2000301015625,13.599973984375L16.2000301015625,13.589972984375C16.1100301015625,13.389973984375,16.4000301015625,13.089972984375,16.4000301015625,13.089972984375C16.6000311015625,12.689972984375,17.2000311015625,12.289973984375,17.3000311015625,12.189973984375C17.4000301015625,12.089972984375,17.3000311015625,12.089972984375,17.3000311015625,12.089972984375C16.5600301015625,11.719972984375,16.4200311015625,10.829972984375,16.4000301015625,10.709972984375C16.4000301015625,10.699972984375,16.4000301015625,10.689973984375,16.410030101562498,10.689973984375C18.1000311015625,10.089972984375,17.7000301015625,8.199973084375,17.7000301015625,8.199973084375L17.6100301015625,7.749972384375001C17.6100301015625,7.729972884375,17.6300311015625,7.719972584375,17.640030101562502,7.729972884375C17.7700291015625,7.799973484375,18.0000291015625,7.799973484375,18.0000291015625,7.799973484375C18.5200291015625,7.889973684375001,19.030029101562498,7.379973384375,19.1700301015625,7.239973084375C19.1900301015625,7.219973584375,19.210030101562502,7.189973384375,19.230030101562498,7.159973584375C19.3100311015625,7.009973484375,19.5500311015625,6.519973784375,19.3000311015625,6.099972684375Z" fill="#D20019" fill-opacity="1" style="mix-blend-mode:passthrough"/></g><g><path d="M4.200049638125,11.5L4.600049528125,11.5L5.600049228125,10.600000099999999L5.600049228125,10.5L5.200049428125,10.5L4.700049328125,10.0000002C4.400049328125,9.7000003,4.500049228125,9.400000200000001,4.500049228125,9.400000200000001C4.500049228125,9.1000003,5.200048928125,9.1000003,5.200048928125,9.1000003L5.900048728125,9.1000003C5.400048728125,8.6000006,5.300048828125,7.5,5.300048828125,7.5C5.000048828125,7.5,4.800048728125,8.09999996,4.800048728125,8.09999996C4.800048728125,8.20000029,4.700048828125,8.29999965,4.700048828125,8.29999965L4.200048748125,8.39999998L3.500048968125,8.5999997C3.300048828125,8.5999997,3.300048828125,8.7999994,3.300048828125,8.7999994L3.600048808125,9.0999993L4.500048728125,10.8999994L4.500048728125,11.3999989L4.200049638125,11.5ZM13.500049828125,10.1000006C13.500049828125,10.2000008,12.800048828125,11.2000003,12.800048828125,11.2000003L12.200048428125,11.6999998C12.000049628125,11.899999600000001,11.100049928125,12.2999997,11.100049928125,12.2999997C10.900049728125001,12.4000001,10.800049828125001,12.2999997,10.800049828125001,12.2999997L10.700049428125,12.2999997L10.700049428125,12.4000001L10.800049828125001,12.5999999L12.900050128125,12.5999999L12.900050128125,12.499999500000001C12.500048628125,12.399999099999999,12.700049428125,12.1999998,12.700049428125,12.1999998C13.000049628125,11.7999992,13.700050828125,11.399999900000001,13.700050828125,11.399999900000001C14.000050828125,11.2999997,14.200049828125,11.399999900000001,14.200049828125,11.399999900000001C13.800049828125,11.2000003,13.500049828125,10.0999997,13.500049828125,10.1000006Z" fill="#D20019" fill-opacity="1" style="mix-blend-mode:passthrough"/></g></g></g></svg>