<svg xmlns="http://www.w3.org/2000/svg" xmlns:xlink="http://www.w3.org/1999/xlink" fill="none" version="1.1" width="22" height="22" viewBox="0 0 22 22"><defs><clipPath id="master_svg0_415_0962739"><rect x="0" y="0" width="22" height="22" rx="0"/></clipPath><clipPath id="master_svg1_415_0962639"><rect x="3" y="3" width="16" height="16" rx="0"/></clipPath></defs><g clip-path="url(#master_svg0_415_0962739)"><g clip-path="url(#master_svg1_415_0962639)"><g><path d="M3,3.000015625001L19,3.000015625001L19,18.999983999999998L3,18.999983999999998L3,3.000015625001Z" fill="#D70304" fill-opacity="1" style="mix-blend-mode:passthrough"/></g><g><path d="M7.881017953125,8.413372495312501L8.244392853125,8.413372495312501L8.304955753125,9.2612790953125C8.094830753125,9.6246542953125,7.610377353125,10.1498412953125,6.851424653125,10.835935595312499L6.972549453125,13.2584514953125C7.012284053125001,16.1655141953125,6.842893153125,17.618999195312497,6.463439953125,17.618999195312497L6.350846253125,17.618999195312497C6.199409053125,17.618999195312497,6.043252453125,17.4165301953125,5.8824087531250004,17.0134061953125C6.081174353125,15.9232481953125,6.1625179531250005,14.3088581953125,6.124658853125,12.1683420953125L6.0640963531250005,11.5021390953125L4.852814973125,12.3500299953125L4.489501953125,12.3500299953125L4.489501953125,12.1683420953125L7.881017953125,8.413372495312501ZM7.699330053125,5.9908724953125L7.881017953125,5.9908724953125C8.123267653125,6.0315444953125,8.244392853125,6.1526693953125005,8.244392853125,6.354247595312501L8.244392853125,6.5964974953125C7.638751953125,7.3639347953125,6.629064553125,8.2524971953125,5.216189503125,9.2612633953125L4.913376953125,9.2612633953125L4.913376953125,9.0190133953125L7.699330053125,5.9908724953125ZM8.547220753125,14.1668881953125L8.775236653124999,14.1668881953125C9.269220853124999,14.1668881953125,9.516252053125001,15.0554671953125,9.516252053125001,16.8317181953125C9.516252053125001,17.0739681953125,9.420658153125,17.1951091953125,9.231392853125,17.1951091953125C8.926689153125,16.9925771953125,8.736454953125001,16.5591541953125,8.660767553125,15.8929531953125C8.585080153125,15.2267351953125,8.547235953125,14.7933751953125,8.547235953125,14.5908431953125L8.547220753125,14.1668881953125ZM12.059908353125,4.1739501953125C12.220705553125,4.1739501953125,12.423299353125,4.7795909653125,12.665549253125,5.9908720953125005L12.726065653125,5.9908720953125005C13.089455653125,5.9104189953125,13.573955553125,5.8905752953125,14.179595953125,5.9303096953125C14.582767953125,6.0514345953125,14.785236953125,6.2331223953125,14.785236953125,6.4753880953125L14.785236953125,6.7782001953125C12.968315153125,6.6977471953125,12.261487453125,7.1415755953125,12.665549253125,8.1105601953125L15.209237953125,7.6866068953125C15.774097953125,7.6468882953125,16.157439953125,7.8891376953125,16.359908953125,8.413371995312499L16.359908953125,8.4739346953125C15.834737953125,9.4429659953125,15.430658953125,10.372263395312501,15.148643953125,11.259871995312501L14.421861653125,11.078185095312499L14.179612153125,11.078185095312499C11.878173853125,11.078185095312499,10.384002253125,11.3412160953125,9.697892653124999,11.8655128953125L9.455689453125,11.8655128953125C9.213439953125,11.8655128953125,8.930455253125,10.876606495312501,8.607799053125,8.8978876953125C10.626252153125,8.5752310953125,11.635924353124999,8.313090795312501,11.635924353124999,8.1105594953125L11.575408453125,7.2021529953125C11.575408453125,7.0810279953125,10.969736553125,7.1415907953125,9.758454753125001,7.3838407953125L9.697892653124999,6.4753875953125C11.030299153125,6.4356064953125,11.696532753125,6.2738093953125,11.696532753125,5.9908717953125L11.696532753125,4.4767627453125C11.776986153125,4.2752314853125,11.898111853125,4.1739501953125,12.059908353125,4.1739501953125ZM9.637330553125,9.3823880953125C9.637330553125,9.5035128953125,9.717782953124999,9.8877319953125,9.879580053125,10.5331077953125L10.788033453125,10.5331077953125C10.909158253125,10.5331077953125,10.969721353125,10.4119824953125,10.969721353125,10.1697167953125C10.929049053125,9.564075495312501,10.788033453125,9.2612633953125,10.545767353125001,9.2612633953125L9.819002153125,9.2612633953125C9.697892653124999,9.2612633953125,9.637330553125,9.301997695312501,9.637330553125,9.3823880953125ZM9.697892653124999,14.1668881953125L10.061267853124999,14.1668881953125C11.070065953124999,15.9440761953125,12.362674753124999,16.810875195312498,13.937332153125,16.7711561953125L15.693738953125,16.7105771953125C15.693738953125,16.6291861953125,15.652973953125,16.3263581953125,15.572613953125,15.8021241953125L15.572613953125,15.6809841953125L16.117644953125,15.8626861953125C16.481019953125,16.1049361953125,16.783784953125,16.5288901953125,17.026051953125,17.134517195312498C16.904909953125,17.5376391953125,16.561488953125,17.7401081953125,15.996503953125,17.7401081953125L15.451487953125,17.7401081953125C12.867127453125,18.0628111953125,11.171330953125,17.4770771953125,10.364080453125,15.9838121953125C9.919345853125,15.5399841953125,9.697877453124999,14.9948901953125,9.697877453124999,14.3485931953125L9.697892653124999,14.1668881953125ZM13.210580853125,11.9260916953125L13.816221253125,11.7443885953125C13.977127053125,11.7443885953125,14.138923653125,11.986654295312501,14.300736453125,12.4711694953125C13.775564153125,12.6329507953125,12.644736253125,12.8950595953125,10.909173453125,13.2584514953125C10.424657853125,13.1780442953125,10.182407353125,13.0569200953125,10.182407353125,12.8950604953125C10.343313653125,12.6130599953125,11.352985853125,12.2894515953125,13.210580853125,11.9260916953125ZM11.757033853125,9.321825495312499L11.757033853125,9.5035128953125L11.878158553125001,10.109153795312501L12.544425053125,10.109153795312501L12.665549253125,9.3218259953125C12.665549253125,9.120294595312501,12.584095953125,9.0190133953125,12.423299753125,9.0190133953125L11.999283753124999,9.0190133953125C11.837502953125,9.140138195312499,11.757033853125,9.2414192953125,11.757033853125,9.321825495312499ZM11.938783153125,13.5612477953125L12.423299353125,13.5612477953125C12.544424053125,13.5612477953125,12.947486853125,13.7637795953125,13.634564353125,14.1668881953125L13.573939353125,15.2570621953125C13.008095753125,15.2570621953125,12.462954553125,14.8331091953125,11.938782653125,13.9852170953125L11.938783153125,13.5612477953125ZM13.573941253125,9.8063416953125C13.573941253125,9.9274663953125,13.654393153125,9.9880294953125,13.816206953125,9.9880294953125L14.179597853125,9.9880294953125C14.582767953125,9.9880294953125,14.865691953125,9.584919895312499,15.027488953125,8.7767633953125L14.785238953125,8.6556381953125L14.664112953125,8.6556381953125C13.937332153125,8.6556381953125,13.573941253125,8.878060295312501,13.573941253125,9.321841195312501L13.573941253125,9.8063416953125ZM15.269753953125,13.7429523953125L15.451504953125,13.7429523953125C16.823582953124998,14.1470460953125,17.510567953124998,14.5103751953125,17.510567953124998,14.8331091953125L17.510567953124998,15.3781871953125C16.016349953125,15.0554841953125,15.269753953125,14.6920931953125,15.269753953125,14.2880291953125L15.269753953125,13.7429523953125Z" fill="#FFFFFF" fill-opacity="1" style="mix-blend-mode:passthrough"/></g></g></g></svg>