<svg xmlns="http://www.w3.org/2000/svg" xmlns:xlink="http://www.w3.org/1999/xlink" fill="none" version="1.1" width="22" height="22" viewBox="0 0 22 22"><defs><clipPath id="master_svg0_415_0962735"><rect x="0" y="0" width="22" height="22" rx="0"/></clipPath><clipPath id="master_svg1_415_270343"><rect x="0" y="0" width="22" height="22" rx="0"/></clipPath></defs><g clip-path="url(#master_svg0_415_0962735)"><g clip-path="url(#master_svg1_415_270343)"><g><path d="M22.0011358228125,15.2389102015625C22.0011358228125,15.0576811015625,21.8542213428125,14.9107666015625,21.6729922328125,14.9107666015625C21.4917631628125,14.9107666015625,21.3448486328125,15.0576811015625,21.3448486328125,15.2389102015625C21.3448486328125,15.4201393115625,21.4917631628125,15.5670546315625,21.6729922328125,15.5670546315625C21.8542213428125,15.5670546315625,22.0011358228125,15.4201393115625,22.0011358228125,15.2389102015625ZM21.6729922328125,15.4850178315625C21.5370700028125,15.4850187315625,21.4268836978125,15.3748324215625,21.4268836978125,15.2389102015625C21.4268836978125,15.1029887915625,21.5370700028125,14.9928025005625,21.6729922328125,14.9928025005625C21.8089144528125,14.9928025005625,21.9191007628125,15.1029887915625,21.9191007628125,15.2389102015625C21.9178301728125,15.3732664015625,21.8092233528125,15.4818716015625,21.6748670928125,15.4831430315625L21.6729922328125,15.4850178315625Z" fill="#4E4540" fill-opacity="1" style="mix-blend-mode:passthrough"/></g><g><path d="M21.797205,15.179828453125C21.798473,15.152486053125,21.788673,15.125787053125,21.770016,15.105761753125C21.746378,15.084359853125001,21.715118,15.073376853125,21.68329,15.075291153125L21.563286,15.075291153125L21.563286,15.394997153125L21.629383,15.394997153125L21.629383,15.289991153125L21.671106,15.289991153125L21.7297,15.394997153125L21.805645,15.394997153125L21.739546,15.274521153125C21.776682,15.258124553125,21.799686,15.220345953125,21.797205,15.179828453125ZM21.730169,15.179828453125C21.730339,15.207874053125,21.706011,15.229791353125,21.678135,15.226706253125L21.631256,15.226706253125L21.631256,15.132950553125L21.678135,15.132950553125C21.712357,15.132950553125,21.731577,15.148889353125,21.731577,15.179828453125L21.730169,15.179828453125ZM2.4006083,14.286338553124999L2.4006083,14.242273653125C2.4006083,13.469728453125,1.8938601,12.909071033125,1.2052264,12.909071033125C0.51659256,12.909071033125,0,13.480041853125,0,14.247429853125L0,14.291494653125C0,15.063570953125,0.5067482,15.619540453125,1.1953819,15.619540453125C1.8840157,15.619540453125,2.4006083,15.053725953125,2.4006083,14.286338553124999ZM0.55596983,14.276494253125L0.55596983,14.247429853125C0.55596983,13.760370153125,0.80676562,13.401287353125,1.1953819,13.401287353125C1.574154,13.401287353125,1.8446386,13.765058853125,1.8446386,14.252118253125L1.8446386,14.281650553125C1.8446386,14.768710653125,1.5938426,15.132481353125,1.2052264,15.132481353125C0.82645434,15.132481353125,0.55596989,14.763553653125,0.55596983,14.276494253125ZM5.0463872,14.296182853125L5.0463872,14.227741553125C5.0463872,13.346909053125,4.5546393,12.909071033125,4.0333595,12.909071033125C3.6583374,12.909071033125,3.4333248,13.125646113125,3.2706587,13.377848253125L3.2706587,12.959698613125L2.715158,12.959698613125L2.715158,16.308175053124998L3.2697215,16.308175053124998L3.2697215,15.171859253125C3.4272301,15.402966253125,3.6536498,15.614385153125,4.0324221,15.614385153125C4.5597963,15.614385153125,5.0463872,15.171859253125,5.0463872,14.296182853125ZM3.2608147,14.286338553124999L3.2608147,14.237116953125C3.2608147,13.725680353125,3.5462997,13.401286453125,3.8810067,13.401286453125C4.2157135,13.401286453125,4.4857292,13.720992453125,4.4857292,14.242273053125L4.4857292,14.286337853125C4.4857292,14.808086653125,4.2204013,15.122636353125,3.8810067,15.122636353125C3.5416121,15.122636353125,3.2608144,14.798242353125,3.2608147,14.286338553124999ZM7.4549646,15.216392953125L7.1647916,14.873717353125C6.9927502,15.041070453125,6.8108644,15.149358553125,6.5647564,15.149358553125C6.2253618,15.149358553125,5.9553456,14.914969953125,5.9056559,14.475256653125001L7.5388756,14.475256653125001C7.5435634,14.396502253125,7.5435634,14.317747853125,7.5435634,14.283527153125C7.5435634,13.501606653125,7.1685419,12.910947563125,6.4616256,12.910947563125C5.8217444,12.910947563125,5.3496861,13.473480653125,5.3496861,14.253994753125L5.3496861,14.293372353125001C5.3496861,15.109982253125,5.870966,15.621418753124999,6.5403795,15.621418753124999C6.8897104,15.626201653125,7.2237296,15.478281753125,7.4549646,15.216392953125ZM6.4616256,13.376442553124999C6.7860193,13.376442553124999,6.9730611,13.676460153125,7.0025949,14.089921953125L5.9004989,14.089921953125C5.941752,13.646927453125,6.1564512,13.376442553124999,6.4616256,13.376442553124999ZM9.1763153,12.909071033125C8.8219185,12.909071033125,8.6105003,13.111113903125,8.4628353,13.342221153125L8.4628353,12.958292903125L7.9068651,12.958292903125L7.9068651,15.565632553124999L8.4623652,15.565632553124999L8.4623652,13.986321953125C8.4623652,13.627238253125,8.6644087,13.411132353125,8.9545822,13.411132353125C9.2447548,13.411132353125,9.4233599,13.612707053125,9.4233599,13.976477753125L9.4233599,15.565632553124999L9.9793301,15.565632553124999L9.9793301,13.819437153125C9.9774542,13.263466753125,9.6774378,12.909071863125,9.1763153,12.909071033125ZM12.218211,14.822619953124999L12.218211,14.817931653125001C12.218211,14.409627153125001,11.913036,14.222584453125,11.509888,14.040699253125C11.204714,13.902878553125,10.997983,13.814279953125,10.997983,13.642238653125L10.997983,13.632394553125C10.997983,13.491761653125,11.121272,13.376441853125,11.326128,13.376441853125C11.530984,13.376441853125,11.748027,13.474884653125,11.945851,13.607549053125L12.180241,13.199244383125C11.934134,13.021835443125,11.639771,12.923714043125,11.336441,12.917977813125C10.849851,12.917977813125,10.475766,13.213307443125,10.475766,13.680678153125L10.475766,13.690522453125C10.475766,14.118516353124999,10.80063,14.295245153125,11.189245,14.462598553125C11.499106,14.595263053125,11.700683,14.679173453125,11.700683,14.866216153125L11.700683,14.870903953125C11.700683,15.033101053125,11.568018,15.156389253124999,11.336442,15.156389253124999C11.104866,15.156389253124999,10.85454,15.042945153125,10.618276,14.851215853125L10.357635,15.249676253125C10.62892,15.479194353125,10.971292,15.607728253125,11.326597,15.613447953125C11.829596,15.614385153125,12.218212,15.334056853125,12.218211,14.822619953124999ZM13.939091,15.491564953125L13.939091,15.034038753125C13.846799,15.083287953125,13.743683,15.108744353125001,13.639074,15.108105153124999C13.461876,15.108105153124999,13.357808,15.024194253125,13.357808,14.822619953124999L13.357808,13.435507853125L13.943311,13.435507853125L13.943311,12.958292903125L13.358745,12.958292903125L13.358745,12.255126953125L12.802776,12.255126953125L12.802776,12.958292903125L12.517759,12.958292903125L12.608703,13.435507853125L12.802776,13.435507853125L12.802776,14.935595753125C12.802776,15.442343953125,13.092949,15.605009353125,13.476877,15.605009353125C13.638103,15.607244253125,13.79722,15.568191053125,13.939091,15.491564953125ZM16.067339,13.194556473125001C15.899985,13.022515233125,15.639346,12.928759453125,15.299952,12.928759453125C15.000579,12.927207713125,14.705281,12.998137173125,14.439276,13.135490353125L14.596785,13.578016353125C14.792929,13.479643253125,15.008396,13.425856753125,15.227757,13.420507453125C15.581685,13.420507453125,15.790292,13.602392953125,15.790292,13.951632153125L15.790292,14.059920053125C15.597758,13.991013153125,15.394748,13.955962653125,15.190256,13.956320053125C14.639441,13.956320053125,14.26536,14.231961353125,14.26536,14.792618753125L14.26536,14.817464153125C14.26536,15.323743553125,14.629601,15.614386053125,15.062281,15.614386053125C15.401675,15.614386053125,15.632782,15.467190553125,15.785604,15.245927353125L15.785604,15.565633253125L16.331259,15.565633253125L16.331259,13.946943253125C16.329386,13.622549553125,16.240786,13.366596853125,16.067339,13.194556473125001ZM15.792166,14.689956153125C15.792166,14.984817553125,15.546058,15.201392453124999,15.226352,15.196704653125C14.985399,15.191548353125,14.804452,15.043883553125,14.804452,14.783242953125L14.804452,14.773398353125C14.804452,14.498226653125,14.991964,14.335560553125,15.310733,14.335560553125C15.476139,14.334606153125,15.640094,14.366473653125,15.793103,14.429316253125L15.792166,14.689956153125ZM18.692492,15.226237053125L18.392475,14.857309353125C18.239655,15.009662153125,18.087301,15.122637253125,17.860882,15.122637253125C17.482107,15.122637253125,17.216782,14.783242953125,17.216782,14.276494253125L17.216782,14.252118253125C17.216782,13.760370853125,17.482109,13.411131353125,17.84635,13.411131353125C18.080738,13.411131353125,18.234968,13.529263753125,18.372786,13.671771453125L18.68265,13.263466753125C18.466074,13.046891573125,18.219967,12.909071033125,17.84635,12.909071033125C17.162401,12.909071033125,16.656124,13.471604153125,16.656124,14.247429853125L16.656124,14.294307953125C16.656124,15.071540553125,17.147871,15.617666453125,17.828068,15.617666453125C18.223717,15.619541153125,18.485762,15.457344553125,18.692492,15.226237053125ZM20.393217,14.212272053125L20.003193,14.631827353125L20.52635,15.565631353125L21.170918,15.565631353125L20.393217,14.212272053125Z" fill="#4E4540" fill-opacity="1" style="mix-blend-mode:passthrough"/></g><g><path d="M20.486968265625,12.95874684625L19.596760035625,14.10490725625L19.596760035625,12.01416015625L19.041259765625,12.01416015625L19.041259765625,15.56561705625L19.596760035625,15.56561705625L19.596760035625,14.81276105625L21.146537065625,12.95874684625L20.486968265625,12.95874684625Z" fill="#4E4540" fill-opacity="1" style="mix-blend-mode:passthrough"/></g><g style="opacity:0.9800000190734863;"><path d="M12.85437103125,5.69183349609375L8.41833204125,5.69183349609375C8.13904190125,5.69260591827375,7.91282485935,5.91882303609375,7.91205276495,6.19811296609375L7.91205276495,7.3911510960937505L9.14259293125,7.3911510960937505L9.14259293125,7.19613979609375C9.14233363125,7.04483549609375,9.26505473125,6.92211399609375,9.41635923125,6.92237389609375L11.85634513125,6.92237389609375C12.00764943125,6.92211399609375,12.130371531249999,7.04483569609375,12.13011173125,7.19613979609375L12.13011173125,7.3911510960937505L13.36065153125,7.3911510960937505L13.36065153125,6.19811296609375C13.35987993125,5.91882228609375,13.133661231249999,5.69260484213375,12.85437103125,5.69183349609375ZM12.12964103125,9.52033759609375C12.12964153125,9.671534096093751,12.00707153125,9.79410359609375,11.85587433125,9.79410359609375L9.41635753125,9.79410359609375C9.26516033125,9.79410359609375,9.14259123125,9.671534096093751,9.14259123125,9.52033759609375L9.14259123125,9.32532619609375L7.91064453125,9.32532619609375L7.91064453125,10.51836439609375C7.9114166259,10.797654196093749,8.13763365125,11.02387189609375,8.41692376125,11.02464339609375L12.852963931249999,11.02464339609375C13.13225363125,11.02387189609375,13.35847093125,10.797654196093749,13.35924293125,10.51836439609375L13.35924293125,9.32532619609375L12.12964013125,9.32532619609375L12.12964103125,9.52033759609375ZM7.91158363334,7.74320269609375L9.14212383125,7.74320269609375L9.14212383125,8.97374319609375L7.91158363334,8.97374319609375L7.91158363334,7.74320269609375ZM12.13010983125,7.74320269609375L13.36065003125,7.74320269609375L13.36065003125,8.97374319609375L12.13010983125,8.97374319609375L12.13010983125,7.74320269609375Z" fill="#ED1944" fill-opacity="1" style="mix-blend-mode:passthrough"/></g></g></g></svg>