<svg xmlns="http://www.w3.org/2000/svg" xmlns:xlink="http://www.w3.org/1999/xlink" fill="none" version="1.1" width="22" height="22" viewBox="0 0 22 22"><defs><clipPath id="master_svg0_415_1100367"><rect x="0" y="0" width="22" height="22" rx="0"/></clipPath><clipPath id="master_svg1_415_0962646"><rect x="-1" y="-2" width="24" height="24" rx="0"/></clipPath></defs><g clip-path="url(#master_svg0_415_1100367)"><g clip-path="url(#master_svg1_415_0962646)"><g><path d="M18.8719482421875,3.62799172265625L18.8719482421875,19.75299072265625C18.8719482421875,20.37548972265625,18.3701982421875,20.87799072265625,17.7469482421875,20.87799072265625L4.2469482421875,20.87799072265625C3.6244482421875,20.87799072265625,3.1219482421875,20.37548972265625,3.1219482421875,19.75299072265625L3.1219482421875,0.25299072265625C3.1219482421875,-0.37025934734375,3.6244482421875,-0.87200927734375,4.2469482421875,-0.87200927734375L14.3719482421875,-0.87200927734375L18.8719482421875,3.62799172265625Z" fill="#E9EDED" fill-opacity="1" style="mix-blend-mode:passthrough"/></g><g><path d="M2.75,16.00299072265625L2.75,19.75299072265625C2.75,20.58399102265625,3.41900009,21.25299072265625,4.25,21.25299072265625L17.75,21.25299072265625C18.581,21.25299072265625,19.25,20.58399102265625,19.25,19.75299072265625L19.25,16.00299072265625L2.75,16.00299072265625Z" fill="#F8B84E" fill-opacity="1" style="mix-blend-mode:passthrough"/></g><g><path d="M18.8719482421875,3.62799072265625L15.4969482421875,3.62799072265625C14.8744482421875,3.62799072265625,14.3719482421875,3.12549062265625,14.3719482421875,2.50299072265625L14.3719482421875,-0.87200927734375" fill="#F8B84E" fill-opacity="1" style="mix-blend-mode:passthrough"/></g><g><path d="M10.9969482421875,4.75C8.5159487421875,4.75,6.4969482421875,6.7689996,6.4969482421875,9.25C6.4969482421875,11.7310004,8.5159487421875,13.75,10.9969482421875,13.75C13.4779477421875,13.75,15.4969492421875,11.7310004,15.4969492421875,9.25C15.4969492421875,6.7689996,13.4779491421875,4.75,10.9969482421875,4.75ZM10.9969482421875,5.5C13.0721988421875,5.5,14.7469492421875,7.1747502999999995,14.7469492421875,9.25C14.7469492421875,11.3252497,13.0721988421875,13,10.996949242187501,13C8.9216995421875,13,7.2469491321875,11.3252497,7.2469491321875,9.25C7.2469491321875,7.1747502999999995,8.9216995421875,5.5,10.9969482421875,5.5ZM10.9969482421875,7.75C10.1726980421875,7.75,9.4969482421875,8.4257498,9.4969482421875,9.25C9.4969482421875,10.0742502,10.1726980421875,10.75,10.9969482421875,10.75C11.8211984421875,10.75,12.4969482421875,10.0742502,12.4969482421875,9.25C12.4969482421875,8.4257498,11.8211984421875,7.75,10.9969482421875,7.75ZM10.9969482421875,8.5C11.4154486421875,8.5,11.7469482421875,8.8314996,11.7469482421875,9.25C11.7469482421875,9.6685004,11.4154486421875,10,10.9969482421875,10C10.5784478421875,10,10.2469482421875,9.6685004,10.2469482421875,9.25C10.2469482421875,8.8314996,10.5784478421875,8.5,10.9969482421875,8.5Z" fill="#F8B84E" fill-opacity="1" style="mix-blend-mode:passthrough"/></g><g><path d="M5.361460120625,16.74547180175825C5.154934990625,16.74876037588125,4.989953308125,16.91843688328125,4.992460021973,17.12497252328125L4.992460021973,20.12047176328125C4.992460021973,20.32757686328125,5.160353080625,20.49546976328125,5.367460010625,20.49546976328125C5.574566960625,20.49546976328125,5.742460010625,20.32757686328125,5.742460010625,20.12047176328125L5.742460010625,17.12497252328125C5.745023490625,16.91373840328125,5.5726828006249995,16.74207519528125,5.361460120625,16.74547180175825ZM7.5799598406249995,16.74997253388125C7.564285240625,16.75199035648125,7.548754240625,16.75499694798125,7.533460340625,16.75897216828125C6.955960440625,16.80397216628125,6.493210340625,17.28697145328125,6.493210340625,17.87497246328125C6.493210340625,18.467472563281248,6.964210140625,18.95497246328125,7.547710440625,18.99247236328125C7.570920940625,18.99719286328125,7.594527040625,18.99970336328125,7.618210840625,18.99997256328125L8.368210840625,18.99997256328125C8.582710540625,18.99997256328125,8.743210540625,19.16047166328125,8.743210540625,19.37497256328125C8.743210540625,19.58947326328125,8.582710540625,19.74997256328125,8.368210840625,19.74997256328125L6.868210640625,19.74997256328125C6.661103740625,19.74997256328125,6.493210640625,19.91786556328125,6.493210640625,20.124972363281252C6.493210640625,20.33207936328125,6.661103740625,20.499972363281252,6.868210640625,20.499972363281252L8.368210840625,20.499972363281252C8.394454240625,20.49970886328125,8.420597040625001,20.49669316328125,8.446210840625,20.49097276328125C9.032630940625001,20.44874146328125,9.488111040625,19.96289496328125,9.492459740625,19.37497256328125C9.492459740625,18.78547166328125,9.027460140625,18.30022216328125,8.448460340625001,18.25747256328125C8.421812040625,18.25204156328125,8.394652140625,18.24952756328125,8.367460040625,18.24997246328125L7.6437099406249995,18.24997246328125C7.634963040625,18.24966666328125,7.6262068406250005,18.24966666328125,7.617460040625,18.24997246328125C7.408232640625,18.25518366328125,7.237248940624999,18.08419976328125,7.242460040625,17.87497246328125C7.242460040625,17.66047179328125,7.403709840625,17.49997252328125,7.617460040625,17.49997252328125L9.117459740625,17.49997252328125C9.324566840625,17.49997252328125,9.492459740625,17.33207947328125,9.492459740625,17.12497252328125C9.492459740625,16.91786560328125,9.324566840625,16.74997253388125,9.117459740625,16.74997253388125L7.6437099406249995,16.74997253388125C7.634963040625,16.74966674808125,7.6262068406250005,16.74966674808125,7.617460040625,16.74997253388125C7.604967640625,16.74934814448125,7.592451340625,16.74934814448125,7.5799598406249995,16.74997253388125ZM12.118209840625,16.74997253388125C11.084043940625001,16.75326476988125,10.246503840625,17.59080565328125,10.243209840625,18.62497246328125C10.243209840625,19.65622256328125,11.086959840625,20.499972363281252,12.118209840625,20.499972363281252C13.149459840625,20.499972363281252,13.993209840625,19.65622256328125,13.993209840625,18.62497246328125C13.993209840625,17.59372252328125,13.149459840625,16.74997253388125,12.118209840625,16.74997253388125ZM12.118209840625,17.49997252328125C12.744459640625,17.49997252328125,13.243209840625,17.99947326328125,13.243209840625,18.62497246328125C13.243209840625,19.25047186328125,12.744459640625,19.74997256328125,12.118209840625,19.74997256328125C11.492709640625,19.74997256328125,10.993209840625,19.25047186328125,10.993209840625,18.62497246328125C10.993209840625,17.99947326328125,11.492709640625,17.49997252328125,12.118209840625,17.49997252328125Z" fill="#E9EDED" fill-opacity="1" style="mix-blend-mode:passthrough"/></g></g></g></svg>