<svg xmlns="http://www.w3.org/2000/svg" xmlns:xlink="http://www.w3.org/1999/xlink" fill="none" version="1.1" width="22" height="22" viewBox="0 0 22 22"><defs><clipPath id="master_svg0_415_0962733"><rect x="0" y="0" width="22" height="22" rx="0"/></clipPath><clipPath id="master_svg1_415_0962628"><rect x="-1" y="0" width="24" height="24" rx="0"/></clipPath></defs><g clip-path="url(#master_svg0_415_0962733)"><g clip-path="url(#master_svg1_415_0962628)"><g><path d="" fill="#D81E06" fill-opacity="0" style="mix-blend-mode:passthrough"/></g><g><path d="" fill="#D81E06" fill-opacity="0" style="mix-blend-mode:passthrough"/></g><g><path d="M8.3606509765625,13.184392079765624C7.9262509765625,13.025392455965624,7.4666514765625,12.932392276765626,7.0406512765625,13.123191829765625C6.4130506765625,13.406991569765625,5.7734503765625,13.480792219765625,5.1002509765625,13.406991569765625C5.0900511765625005,13.406991569765625,5.0774512765625,13.424991759765625,5.0468511765625,13.448991389765625C5.4728510765625,14.118591509765626,5.8988511765625,14.791191109765625,6.3410510765625,15.491391909765625C7.2008509765625,14.857792009765625,8.1200513765625,14.537991909765624,9.2180518765625,14.647792009765626C8.9636511765625,14.155792209765625,8.7392520765625,13.718391719765625,8.5082516765625,13.284591969765625C8.4711012765625,13.236194449765625,8.4193429765625,13.201057429765624,8.3606509765625,13.184392079765624ZM3.1706506765625,14.495392409765625L1.9322509765625,14.495392409765625L1.9322509765625,19.157392009765626C2.0420510965625,19.162791709765624,2.1362510765625,19.171192609765626,2.2322509865624998,19.171791509765626L2.8340509565625,19.171190709765625C3.2360509765625,19.170590409765623,3.6380507765625003,19.169991509765623,4.0412509765625,19.171190709765625C4.3682508765625006,19.174190009765624,4.6952509765625,19.188591509765626,5.021651276562499,19.197591309765624L5.1284510765625,19.197591309765624L5.1284510765625,18.220791309765623L3.1700510765625003,18.220791309765623L3.1700510765625003,14.495992109765625L3.1706506765625,14.495392409765625ZM9.1604513765625,16.076992509765624C9.565451176562501,15.612592909765624,10.0940513765625,15.544792609765626,10.6628522765625,15.654592009765626C11.2100515765625,15.758991209765625,11.5364513765625,16.070992009765625,11.5688523765625,16.655391409765624C11.6030530765625,17.231391909765627,11.5952520765625,17.809790609765624,11.5880527765625,18.395391509765624C11.5844526765625,18.646191109765624,11.5808534765625,18.898792309765625,11.5808534765625,19.152591209765625L10.3886537765625,19.152591209765625L10.3886537765625,18.615590609765626L10.3898534765625,18.141590609765625C10.3916530765625,17.824790909765625,10.3928537765625,17.508591609765624,10.3886537765625,17.192390409765625C10.3838529765625,16.882790109765626,10.2242526765625,16.667990909765624,9.9704532765625,16.597790209765627C9.6860527765625,16.519790909765625,9.3932532765625,16.615789409765625,9.2570533765625,16.904989909765625C9.159368076562501,17.132921209765627,9.1052350765625,17.377131009765627,9.0974530765625,17.624990009765625C9.0668534765625,18.148790309765623,9.072253276562499,18.674989709765626,9.0632524765625,19.199989809765626L7.9100513765625,19.199989809765626L7.9100513765625,15.719989809765625L8.9978518765625,15.719989809765625L8.9978518765625,16.204190209765624C9.0554523765625,16.165789409765626,9.1094517765625,16.123790509765627,9.159851576562499,16.076990609765623L9.1604513765625,16.076992509765624ZM6.9200515765625,19.126191109765625L5.7260510765625,19.126191109765625L5.7260510765625,15.685791209765625L6.9200515765625,15.685791209765625L6.9200515765625,19.126191109765625ZM14.8838509765625,16.202991009765626C14.8820509765625,16.340990309765626,14.8820509765625,16.478991309765625,14.8820509765625,16.616391909765625C14.8820509765625,16.952392109765626,14.8820509765625,17.288991409765625,14.8598509765625,17.624391109765625C14.8370499765625,17.969991709765626,14.5328499765625,18.233991109765626,14.1776509765625,18.215990109765624C13.8536519765625,18.198589809765625,13.6454519765625,17.956790009765626,13.6412509765625,17.566191209765627C13.6370509765625,17.302191209765624,13.6382509765625,17.038191809765625,13.6400509765625,16.773591509765623L13.6412509765625,16.374591809765626L13.6412509765625,15.688792509765625L12.4352499765625,15.688792509765625C12.4352499765625,15.940793009765624,12.4322499765625,16.191592709765626,12.4292509765625,16.441192909765626C12.4232499765625,17.023193309765624,12.4172509765625,17.600393309765625,12.4448499765625,18.175192309765624C12.4700499765625,18.692992709765626,12.8084499765625,19.018191809765625,13.3322499765625,19.144792509765626C13.3820499765625,19.159792409765625,13.4312499765625,19.177193209765626,13.4798499765625,19.196992409765624L14.0654499765625,19.196992409765624L15.0260509765625,18.664792509765626L15.0548509765625,19.127392309765625L16.1066509765625,19.127392309765625L16.1066509765625,15.694192209765625L14.8826509765625,15.694192209765625L14.8826509765625,15.719393009765625C14.8844509765625,15.892793909765626,14.8856509765625,16.047593109765625,14.8838509765625,16.202991009765626ZM19.5332509765625,17.143790709765625C19.4210509765625,17.299190009765624,19.4336489765625,17.405389809765623,19.5362489765625,17.554190109765624C19.8866499765625,18.060590309765626,20.2220499765625,18.578390609765627,20.6000499765625,19.147189609765626L20.2634509765625,19.147189609765626C19.8986509765625,19.148388909765625,19.5578499765625,19.149590009765625,19.2164499765625,19.139989809765623C19.1642509765625,19.139989809765623,19.1006509765625,19.046390009765624,19.0676499765625,18.983989209765625C18.9080489765625,18.682189509765625,18.7538489765625,18.371389909765625,18.5780489765625,18.029989709765626C18.3920499765625,18.377390409765624,18.2360479765625,18.683989509765624,18.0632499765625,18.982189609765626C18.0230479765625,19.052989009765625,17.9336489765625,19.141189109765627,17.8634509765625,19.143589509765626C17.5712509765625,19.154989709765626,17.2790519765625,19.153790509765624,16.9658519765625,19.151990409765624C16.850851976562502,19.151279909765627,16.7358519765625,19.150880809765624,16.6208519765625,19.150791209765625C16.7318519765625,18.983390809765623,16.8188509765625,18.848390609765623,16.9100519765625,18.715791209765626C17.1464519765625,18.371391809765626,17.3684529765625,18.016191009765624,17.6252529765625,17.687390309765625C17.804052976562502,17.457591009765626,17.827452976562498,17.285389409765624,17.635452976562497,17.039989909765623C17.3144529765625,16.628989409765623,17.0414539765625,16.183790409765624,16.714452976562498,15.703790409765626L17.0612529765625,15.702591209765625C17.4200539765625,15.701391909765626,17.7590529765625,15.700190809765624,18.0980529765625,15.711590809765624C18.1514529765625,15.713991409765626,18.2210519765625,15.820791209765625,18.2576539765625,15.891590809765624C18.3914549765625,16.150791209765625,18.5138529765625,16.413591609765625,18.6626529765625,16.723790409765627C18.8204539765625,16.400990209765624,18.9458539765625,16.126191109765625,19.0910549765625,15.860990309765626C19.1288549765625,15.788989509765624,19.2236539765625,15.707990909765625,19.2956539765625,15.705590509765624C19.5824549765625,15.694790809765625,19.8692549765625,15.695990309765625,20.1824549765625,15.697189609765624L20.5250529765625,15.698388809765625C20.1716539765625,16.211388109765625,19.8638549765625,16.685988409765624,19.5332509765625,17.143790709765625Z" fill="#D81E06" fill-opacity="1" style="mix-blend-mode:passthrough"/></g><g><path d="M2.6360247140624997,8.12398739296875C2.7680247140625003,8.06998779296875,3.0080244140625,8.02198739296875,3.0740248140624997,8.08798699296875C3.1820249140625,8.21998689296875,3.2300247140625,8.387986892968751,3.2000247140624998,8.55598709296875C3.0740248140624997,9.017986792968749,2.8640249140625,9.449986892968749,2.3060247340625,9.581987392968749C2.2220246240625,9.59998749296875,2.1020246140625,9.68998769296875,2.0900248240625,9.76198769296875C2.0420248540625,10.055987392968749,2.0300248240625,10.34998749296875,2.0060247140625,10.63798759296875L2.1080247740624998,10.70398809296875C2.3660246740625,10.57198859296875,2.6180247140625,10.41598799296875,2.8880249140625,10.30798769296875C3.0380249140625,10.25398829296875,3.2000247140624998,10.24798779296875,3.3500247140625,10.29598809296875C3.4280248140625,10.32598779296875,3.4940247140625,10.54198839296875,3.4640248140625,10.643988092968751C3.3680249140625,10.94398829296875,3.2660246140625,11.26198819296875,3.0740248140624997,11.50798799296875C2.6600247140624997,12.02998779296875,2.6180249140625,12.581987392968749,3.0380249140625,13.13398839296875C3.2420250140625,13.07998849296875,3.3920250140625,12.97798829296875,3.4400246140625,12.75598809296875C3.4700246140625,12.581988292968749,3.5240247140625,12.41998769296875,3.5960245140625,12.25798799296875C3.8360245140625,11.75998779296875,4.088024414062501,11.28598789296875,4.1660244140625,10.71598819296875C4.2620244140625,10.01998759296875,4.8080244140624995,9.54598809296875,5.2160244140625,9.01198859296875C5.4620242140625,8.69998859296875,5.8460245140625,8.64598799296875,6.1100244140625,8.84998849296875C6.4160242140625,9.089988692968749,6.7040238140625,9.07198859296875,7.0160246140625,8.891988292968751C7.1300244140625,8.82598829296875,7.2620249140625,8.79598809296875,7.3880243140625,8.74798869296875C7.4060249140625,8.81398919296875,7.4240250140625,8.837988892968749,7.4180245140625,8.84998849296875C7.2200246140625,9.173988292968751,7.0220241140625,9.50398829296875,6.8180246140625,9.827988592968751C6.8000245140625,9.85798879296875,6.7700243140625,9.87598899296875,6.7340250140625,9.89398909296875C6.2960248140625,10.115988692968749,6.1040249140625,10.70998959296875,5.4980249140625,10.679989292968749C5.4740252140625,10.679989292968749,5.4500251140625,10.70398899296875,5.4320254140625,10.72198919296875C5.2220254140625,10.85398909296875,5.1140251140625,11.183989092968751,5.216025314062501,11.38198949296875C5.3060253140625,11.54998969296875,5.5520253140625,11.62798979296875,5.8040256140625,11.56198929296875C5.8520255140625,11.54998969296875,5.9000254140625,11.53198909296875,5.9540253140625,11.519989492968751C6.9200253140625,11.22598979296875,7.8860254140625,11.09998939296875,8.8700251140625,11.465990092968749C9.056025514062501,11.531990092968751,9.3080249140625,11.489989292968751,9.5120249140625,11.44199039296875C9.5840254140625,11.42399029296875,9.6800251140625,11.22598979296875,9.6560240140625,11.14199019296875C9.5540256140625,10.75799039296875,9.212024714062501,10.565989992968749,8.894024814062501,10.38598969296875C8.7620249140625,10.307989592968749,8.5460248140625,10.35598989296875,8.372025014062501,10.38598969296875C8.1080255140625,10.42798949296875,7.8440246140625,10.49998949296875,7.5860247140625,10.55998949296875L7.5260248140625,10.493988992968749C7.5800242140625,10.373989092968749,7.6160245140625,10.24798869296875,7.6880245140625,10.13998939296875C8.0480246140625,9.641989192968751,8.4200244140625,9.149989592968751,8.7920241140625,8.65198949296875C8.9780245140625,8.39398909296875,9.050024014062501,7.99198939296875,8.894023914062501,7.8659889929687505C8.684023814062499,7.69798879296875,8.4560237140625,7.55398919296875,8.210024314062501,7.44598909296875C8.1080246140625,7.39798879296875,7.9400244140625,7.44598909296875,7.8260245140625,7.493989192968749C7.2680244140625,7.75198939296875,6.7280245140625,8.05198929296875,6.1520247140625,8.26198939296875C5.6600251140625,8.44198939296875,5.1560249140625,8.56198929296875,4.9220250140625,9.083989192968751C4.9040246140625,9.12598899296875,4.8500249140625,9.15598919296875,4.8140247140625,9.19798899296875C4.6820249140625005,9.37798879296875,4.5440247140625,9.551988592968751,4.4240248140625,9.73798899296875C4.3100247140625,9.91198829296875,4.2080247140625,10.09798859296875,4.0880248140625,10.28998849296875C3.9860251140625,10.145988892968749,3.9260249140625,9.99598889296875,3.8180249140625,9.929988392968749C3.5900247140625,9.79798889296875,3.6260249140625,9.64798879296875,3.7400246140625,9.47998859296875C3.8780248140625,9.28198859296875,4.0220244140625,9.08398819296875,4.1660244140625,8.891988292968751C4.496024614062501,8.44198849296875,4.4840247140625,8.22598819296875,4.1000247140625,7.82398819296875C4.028024914062501,7.73998859296875,3.9440248140625,7.661988492968749,3.8540246140625,7.59598799296875C3.7160246140625,7.49398829296875,3.6860247140625,7.40398839296875,3.8300247140625,7.28998829296875C4.1000247140625,7.0799881929687505,4.3640246140625,6.86998819296875,4.6400246140625,6.6719879929687504C4.8440246140625,6.52798799296875,5.0660245140625,6.41998819296875,5.2700245140625,6.28198799296875C5.4500246140625,6.16198799296875,5.5460243140625,5.7479879229687505,5.4020243140625,5.63398784296875C5.0300245140625,5.34598767296875,4.7840242140625,4.90198806296875,4.2680244140625,4.79998779296875L4.0580244140624995,4.79998779296875C4.0580244140624995,4.81198760996875,4.0580244140624995,4.83598770196875,4.0640242140625,4.84798797596875C4.304024214062499,5.21998778296875,4.322024314062499,5.35798794296875,4.0100243140625,5.66998779296875C3.5660241140625,6.11398779296875,3.0680244140625,6.49798799296875,2.6180242140625003,6.9419874929687495C2.3300243640625,7.22398729296875,2.0300243540625003,7.42198749296875,1.6160243040625,7.45798759296875C1.5380243540625,7.46398739296875,1.4660243170625,7.547987492968749,1.4000244140625,7.595987592968751L1.4000244140625,8.16598799296875C1.4180243670625,8.20198849296875,1.4300244110625,8.24398829296875,1.4420244540625,8.28598809296875C1.5320244440625,8.65198849296875,1.6100243940625,8.68798779296875,1.9460242940625,8.50798799296875C2.1740242240625,8.38198759296875,2.3960242240625,8.22598819296875,2.6360247140624997,8.12398739296875Z" fill="#D81E06" fill-opacity="1" style="mix-blend-mode:passthrough"/></g><g><path d="M19.203248946875,11.828988086328124C19.094048546875,11.528987886328125,18.887648146875,11.490587686328125,18.561848646875,11.497787486328125C17.847849346875,11.515787586328125,17.330049046875,11.816387686328124,16.899847946875,12.326987286328125C16.766648246875,12.487186886328125,16.614848146874998,12.634186786328126,16.470248246875002,12.786587286328125C16.205047146875,13.067386586328125,15.854647646875,12.984587686328124,15.731047646875,12.614387486328125C15.694710246875001,12.511802686328124,15.675259146875,12.404002186328125,15.673448046875,12.295186986328126C15.673448046875,12.117586586328125,15.734647246875,11.950187186328126,15.878048446874999,11.797186886328124C15.923648846875,11.747986786328125,15.965647746875,11.695187086328126,15.972847446875,11.686787086328124C15.781996746875,11.575548686328126,15.585757046874999,11.473824486328125,15.384848346875,11.381987086328124C15.296655646875,11.358124686328125,15.202374446875,11.377248286328125,15.130448846875,11.433587086328124C14.860448846875,11.703587086328124,14.613849846875,11.996387486328125,14.344448546875,12.267586686328125C14.123048546875001,12.489586786328125,13.909448646875,12.459586586328125,13.792448746875,12.176386386328126C13.675449146875,11.892586686328125,13.613649146875,11.586586486328125,13.530249146875,11.290186386328125C13.508049446875,11.211586486328125,13.493049546875,11.130586186328124,13.466048746875,11.010586286328124C13.284848446875,11.143785986328126,13.143248446874999,11.251786186328125,12.994448746875,11.355586086328124C12.881048846875,11.432985786328125,12.741248746875,11.461786286328124,12.688448446875,11.309385786328125C12.684420946875,11.297813386328125,12.682391246875,11.285639786328126,12.682448046875,11.273385486328124C12.682448046875,11.202585686328124,12.733448346875,11.105986086328125,12.782048246875,11.046585586328124C13.090448146875,10.671585586328124,13.415647946875,10.308585186328125,13.724047946875,9.932985786328125C13.932847746875,9.677985686328125,14.129647746875,9.411585786328125,14.319848346875,9.141585786328125C14.378048446874999,9.060584986328125,14.392447946875,8.950786086328126,14.426047846875,8.853585486328125L14.354647646875,8.824785686328125L14.150047346875,8.980185486328125C14.154247746875,8.846985386328125,14.233447346875,8.752185386328126,14.313247446875,8.657385086328125C14.397247046875,8.557185186328125,14.482447846875,8.455784986328124,14.482447846875,8.306985386328126C14.482359846875,8.270984186328125,14.477926946875,8.235124786328125,14.469247846875,8.200185586328125C14.253247546875,8.350185386328125,14.029447746875,8.490585286328125,13.822448046875,8.651985386328125C13.470248246875,8.925585286328126,13.146848346875,9.233985386328126,12.774248046875,9.479985686328124C12.653648246875001,9.562785586328125,12.407647966875,9.541785686328126,12.255848046875,9.479985686328124C12.038918406875,9.384250686328125,11.841592086875,9.249173686328124,11.673848263875,9.081585386328126C11.604248046875,9.014385686328126,11.629447934875,8.850585186328125,11.604248046875,8.674785586328126C12.073448446875,8.883585486328125,12.440047566875,8.714385986328125,12.803648246875,8.545786186328126L12.889447846875001,8.506185786328125C13.652048146875,8.158786286328125,14.413448346875,7.808986186328125,15.175446946875,7.462185886328125C15.452884946874999,7.328628086328125,15.780217146875,7.351438486328124,16.036447546875,7.522185786328125C16.112048146875,7.568985686328125,16.151047746875,7.620585686328125,16.151047746875,7.669785786328125C16.151047746875,7.721985386328125,16.108448046875,7.771785486328125,16.020846846875,7.810785986328125C15.889313246875,7.861294786328125,15.755111246875,7.904558886328125,15.618845946875,7.940386286328125C15.499574946875,7.972119286328125,15.383326746875,8.014282186328124,15.271445546875,8.066386686328125C15.111244946875,8.153386386328124,15.032644946875,8.219386786328124,15.032644946875,8.295587086328124C15.032644946875,8.363986986328126,15.095045546875,8.439586686328125,15.218645346875,8.547586886328125C15.388444446874999,8.696386586328124,15.566644646875,8.836186686328125,15.752645046875,8.965786886328125C15.931445646875,9.088787086328125,16.021445746875,9.253787086328124,16.021445746875,9.429586886328124C16.021445746875,9.537586686328126,15.987245046875,9.650386286328125,15.918245346875,9.761386386328125C15.813846146875001,9.928786286328126,15.746646446875001,10.118987086328126,15.670445446875,10.302586986328125C15.572044346875,10.540786786328125,15.480844946875,10.782587086328125,15.384245846875,11.027986486328125C15.522245146875001,11.149187086328125,15.849846346875001,11.155186186328125,16.076045946875,11.027986486328125C16.319645446875,10.891786586328125,16.558446446875,10.745986986328125,16.805645946875,10.617586586328125C16.948446246875,10.542586786328126,17.011445546875,10.458587186328124,17.011445546875,10.312187186328124C17.011445546875,10.285787086328124,17.009645446875,10.256987086328124,17.005445046875,10.225787186328125C16.959844546875,9.877786686328125,16.969444746875,9.521987486328126,16.959844546875,9.169786486328125C16.958044546875,9.115786986328125,16.958044546875,9.062386986328125,16.958044546875,9.007786786328126L16.958645346875,8.845787086328125L16.959844546875,8.645986786328125C16.859045046875,8.708386386328126,16.804444746875,8.745587086328126,16.746845246875,8.777986786328125C16.564444546875002,8.878186486328126,16.371845246875,8.911786286328125,16.206244946875,8.763586286328124C16.098844046875,8.667586086328125,16.042444246875,8.556586486328126,16.042444246875,8.444986586328124C16.042444246875,8.350186386328126,16.083243846875,8.254786486328126,16.167843846875,8.167186286328125C16.496644546875,7.829385986328125,16.845842846875,7.511386186328124,17.188444146875,7.187385986328125C17.319243946874998,7.064985986328125,17.454844446875,6.946186286328125,17.588644946875,6.824986086328125L17.535244446874998,6.740985986328125C17.372644946875,6.8057860863281245,17.195643946875002,6.862785886328125,17.049844746875,6.938386086328125C16.904045146875,7.013986086328125,16.748044446875,7.058386086328126,16.638245546874998,6.9275859863281255C16.550045446875,6.823186186328125,16.449245946875,6.669585786328125,16.449245946875,6.548986186328125C16.449245946875,6.536986386328125,16.450445146875,6.524985986328125,16.452245246875002,6.512986286328125C16.501445246875,6.277786386328125,16.598645246875,6.054586286328125,16.739045146875,5.856586156328125C16.847044446875,5.703585926328125,16.904645446875,5.582986296328125,16.904645446875,5.466586116328125C16.904645446875,5.345386356328125,16.841045846874998,5.230185986328125,16.705445246875,5.088585966328125C16.666650746875,5.058568112328125,16.642614346875,5.013336029328125,16.639444846875,4.964385986328125C16.724645646875,4.994986113328125,16.823044746875,5.008785858328125,16.895045246875,5.060385890328125C17.184844446875,5.264385966328125,17.465645746875,5.481585686328125,17.751845346875,5.688585936328125C17.791445246875,5.717386126328125,17.847845546875,5.756385806328125,17.886244746875,5.747985836328125C18.144243746875,5.698785846328125,18.398644946875,5.636985896328125,18.648844246875,5.561385806328125C18.813243346874998,5.507985826328125,19.161244346875,5.566185896328125,19.248844146875,5.711985886328125C19.293933846875,5.780325476328125,19.320026446874998,5.859431566328125,19.324444746875,5.941185896328125C19.324444746875,6.022185786328125,19.289645146875,6.101385786328125,19.202044046875,6.178185686328125C18.934444446875,6.413985686328125,18.677644746875,6.6623856863281254,18.408843946875,6.913185686328125C18.592443946875,7.048785886328125,18.768844146875,7.1411857863281245,19.047245046875,7.078785886328125C19.202044046875,7.043985586328125,19.382644646875,7.101585586328126,19.555444746875,7.156785986328125C19.603444146875,7.171786086328125,19.650844546875,7.186785986328125,19.697044346875,7.199985986328125C19.721644446875,7.206586086328125,19.745042846875002,7.283986086328126,19.745042846875002,7.345185986328125C19.745446246874998,7.3616783863281245,19.743010546875,7.378117586328125,19.737843546875,7.393785686328124C19.707770346875,7.475876586328125,19.649216646875,7.544437686328125,19.572843546875,7.586985786328125C19.529643546875,7.606785986328125,19.476843346875,7.603185686328125,19.422243146875,7.598985686328125C19.384442846875,7.595985386328125,19.346642446875002,7.592985886328125,19.311242546875,7.598385586328125C19.113243546875,7.625385286328125,18.960242246874998,7.694385986328125,18.950642146875,7.930185586328125C18.926642446875,8.515785186328126,18.884042746875,9.101385586328124,18.864242046875,9.688185686328126L18.863641246874998,9.719386086328125C18.863641246874998,10.076986286328125,19.086841546875,10.185585986328125,19.431240546875,10.005586186328124C19.688040746875,9.873586186328126,20.121240646875002,9.899385886328126,20.326441746875,10.097385886328125C20.380440746875,10.148985886328125,20.396041846875,10.251586486328126,20.396041846875,10.346385486328124C20.396041846875,10.376385686328124,20.394242246875002,10.405185186328126,20.391840946875,10.431585786328124C20.388241746875,10.473585586328124,20.261041646875,10.531785486328126,20.186640746875,10.538385386328125C19.859640146875,10.564185186328125,19.532040146874998,10.585185486328125,19.204441046875,10.585185486328125C18.984840846875,10.587584986328125,18.860041646875,10.663185586328126,18.806640646875,10.879185186328126C18.759240146875,11.041184886328125,18.702839846875,11.200185286328125,18.636841346875002,11.355585086328125C18.870841046875,11.397584886328126,19.101841446875,11.473185586328125,19.333440346875,11.473185586328125C19.533239846875,11.473185586328125,19.645441046875,11.563785086328124,19.746240646875002,11.698785286328125C19.929240246875,11.945385486328124,20.033640846875002,12.163185586328126,20.033640846875002,12.374985686328124C20.033640846875002,12.602985886328124,19.913041146875003,12.824985486328124,19.640041346875,13.067985486328125L18.611042046875,12.261585686328125L18.659040946875,12.171585586328124C18.767040246875,12.179385686328125,18.876240746875,12.177586086328125,18.984241946875,12.167385086328125C19.083783646875,12.154975886328124,19.177899846875,12.115085586328124,19.256042046875,12.052185086328125C19.262042046875,12.046785386328125,19.263842146875,12.037785086328125,19.263842146875,12.026385786328124C19.256193646875,11.971890886328126,19.240840446874998,11.918758886328124,19.218241646875,11.868585586328125C19.213118046875,11.855431986328124,19.208117446875,11.842230786328125,19.203248946875,11.828988086328124ZM16.387449746875,8.043588186328126L16.969450046875,7.615188086328125C16.983849546875,7.670988286328125,16.991049246875,7.723787986328125,16.991049246875,7.772988586328125C16.991049246875,8.011188486328125,16.821848846875,8.158188386328124,16.513449646875,8.114988286328124C16.471449346874998,8.108988086328125,16.406650046875,8.114988286328124,16.387449746875,8.043588186328126ZM15.175448846875,9.891588186328125C15.032648546875,10.307387786328125,14.863448146875001,10.713588286328125,14.667849546875,11.109588586328126C14.594048746875,11.258988886328126,14.451250346875,11.419788386328126,14.299449446875,11.479188886328124C14.055849746875,11.575189086328125,13.895649946875,11.445589086328125,13.695250046875,11.144988086328125C13.651234146875,11.085119286328126,13.626157046875,11.013440586328125,13.623250246875,10.939188486328124C13.623250246875,10.834788286328125,13.683250146875,10.742988586328124,13.774450546875,10.645189286328126C14.100850546875,10.293589086328126,14.413450046874999,9.928789186328125,14.736250446875001,9.577188986328125C14.840649846875,9.476989286328125,14.951650146875,9.383988886328126,15.068050146875,9.297588786328124L15.185050946875,9.333589086328125L15.185050946875,9.345588686328124C15.185050946875,9.402588886328125,15.189251446875,9.461388586328125,15.193451846875,9.519588486328125C15.198251046875,9.577788786328124,15.202451446875,9.635988686328126,15.202451446875,9.693588286328126C15.202451446875,9.761988186328125,15.196451146874999,9.828587986328124,15.175448846875,9.891588186328125ZM18.132248446875,10.298388486328125C18.050839946875,10.323178786328125,17.971415946875,10.354065886328126,17.894649046875,10.390788086328126L17.827449346875,10.323588386328126L18.342248446875,9.753588186328125C18.391448946875002,9.889788586328125,18.417248746875,9.988788086328125,18.417248746875,10.063787986328126C18.417248746875,10.201187586328125,18.328447846875,10.254587686328126,18.131648046875,10.298388486328125L18.132248446875,10.298388486328125ZM18.051848846875,9.124788286328126L18.357248746875,8.732988586328124L18.410048946875,8.752788586328125L18.410048946875,9.466788286328125L18.348248946875,9.490787986328126L18.051848846875,9.124788286328126ZM18.259448546875,7.219788586328125C18.269048646875,7.4933883863281245,17.790247946875,7.390188186328125,17.859848046875,7.174788486328125L18.259448546875,7.219788586328125ZM17.790247946875,7.441788186328125C17.790247946875,7.597187986328125,17.523847546875,7.855787986328124,17.523847546875,7.597187986328125C17.523847546875,7.4411880863281255,17.657047746875,7.426788286328125,17.790247946875,7.4411880863281255L17.790247946875,7.441788186328125ZM18.328447846875,7.788588286328125C18.360247646875,7.782587786328126,18.447248446875,7.863588086328125,18.448447746875,7.904988286328125L18.448447746875,7.970988786328125C18.448447746875,8.096989186328125,18.441848746875,8.224788386328125,18.434048646875,8.357388686328125L18.425048846875,8.534388586328125C18.234848046875,8.460588886328125,18.089048346875,8.378388386328126,17.933048246875,8.351388486328124C17.777047646875,8.323788186328125,17.613847746875,8.345388186328126,17.439847946875,8.317788586328124C17.694247746875,8.063388386328125,17.972648646875,7.864188686328125,18.327847446875,7.788588286328125L18.328447846875,7.788588286328125ZM17.732048046875,8.750988686328125C17.733120946875,8.763561686328124,17.733721246875,8.776171186328124,17.733847646875,8.788788986328125C17.733847646875,8.990988686328125,17.606647946875,9.094789486328125,17.459048746875,9.215988586328125C17.418847546875,9.248988586328124,17.377449546875,9.283188386328124,17.336049546875,9.320988686328125C17.324883446875,9.236584186328125,17.317876346875,9.151680986328124,17.315049146875,9.066588386328124C17.311293646875,9.016890986328125,17.322360546875,8.967195986328125,17.346848946875,8.923788086328125C17.394848346875,8.849988186328126,17.506449246875,8.817587886328125,17.732048046875,8.750988686328125ZM17.781847046875,9.739788486328125L17.781847046875,9.746388386328125C17.781847046875,9.935988386328125,17.664247546875,10.021788086328126,17.530447046875,10.118988986328125C17.466848846875,10.162913286328125,17.407039146875,10.212085286328126,17.351646446875,10.265988786328126L17.329446346875,9.800388786328124L17.781847046875,9.739788486328125ZM16.472047846875,12.070188086328125C16.391648246875,12.094187786328124,16.298646946875,12.079187886328125,16.205047146875,12.063588186328126C16.163711046875,12.055882886328124,16.122076546875,12.049877186328125,16.080247846875,12.045587986328126C16.104848346875002,11.883588286328125,16.099448646875,11.706588286328124,16.166047546875,11.562587786328125C16.208647246875,11.471387386328125,16.355647546874998,11.418588186328126,16.464247746875,11.365787986328126C16.764848246875,11.221788386328125,17.063646746875,11.069387886328126,17.374448346875,10.951788386328126C17.882648446875,10.757387686328125,18.105247946875,10.883388086328125,18.248648646875,11.389788186328126C17.878448046875,11.522388886328125,17.510649646875,11.648988686328124,17.147648346875002,11.785788486328125C16.919649146875,11.869788186328126,16.704848246875,11.996388386328125,16.472047846875,12.067788586328124L16.472047846875,12.070188086328125Z" fill="#D81E06" fill-opacity="1" style="mix-blend-mode:passthrough"/></g><g><path d="M14.492056310625,6.990011174609375C14.180056510625,7.206011174609375,13.838056650625,7.386011074609375,13.508056640625,7.578011374609375L13.508056640625,7.620011174609375C13.598056644625,7.614011274609375,13.688056650625,7.602011074609375,13.778056650625,7.5840112746093755C14.360057410625,7.422011474609375,14.942056340625,7.260011274609375,15.524057140625,7.086011174609375C15.848056840625,6.990011174609375,15.950057540625,6.5700112546093745,15.680057540625,6.330011274609375C15.314057140625,5.994011384609375,14.828056740625,5.934011384609375,14.306057750625,5.868011474609375C14.426057760625,6.024011374609375,14.516057740625,6.132011564609375,14.600057340625,6.240011274609375C14.870057440625,6.612011074609375,14.870057440625,6.726011154609375,14.492056310625,6.990011174609375Z" fill="#D81E06" fill-opacity="1" style="mix-blend-mode:passthrough"/></g></g></g></svg>