<svg xmlns="http://www.w3.org/2000/svg" xmlns:xlink="http://www.w3.org/1999/xlink" fill="none" version="1.1" width="22" height="22" viewBox="0 0 22 22"><defs><clipPath id="master_svg0_415_0962723"><rect x="0" y="0" width="22" height="22" rx="0"/></clipPath><clipPath id="master_svg1_415_0962538"><rect x="2" y="0" width="20" height="20" rx="0"/></clipPath></defs><g clip-path="url(#master_svg0_415_0962723)"><g clip-path="url(#master_svg1_415_0962538)"><g><path d="M12,0C17.519376,0,22,4.4806247,22,10C22,15.519376,17.519376,20,12,20C6.4806242,20,2,15.519376,2,10C2,4.4806242,6.4806247,0,12,0ZM14.732421,14.733125C14.094064,15.101901,13.875647,15.918422,14.244631,16.556658C14.613615,17.194897,15.430207,17.413046,16.068323,17.043852C16.706440999999998,16.67466,16.924326,15.857995,16.554921,15.219999C16.18572,14.582778,15.370219,14.364921,14.732421,14.733125ZM12,13.9C11.4325657,13.900619,10.8718891,13.776882,10.3574209,13.537498L9.4299216,15.2C10.7083387,15.833406,12.1759,15.971433,13.549999,15.5875C13.739809,14.417794,14.954123,13.71579,16.0625,14.134999C17.082324,13.136832,17.696769,11.79663,17.787499,10.3725L15.883203,10.345C15.708125,12.3375,14.037499,13.9,12,13.9ZM8.0999994,10C8.0996943,8.7294254,8.718451,7.5383811,9.758203,6.808125L8.7832031,5.1738281C7.5978408,5.9624653,6.743515,7.1590996,6.3825779,8.5363274C6.8219137,8.8891325,7.0765901,9.4228706,7.0744534,9.9863281C7.0744534,10.573202,6.8044529,11.085703,6.3825779,11.435702C6.7437172,12.812651,7.5980153,14.008997,8.7832031,14.7975L9.758203,13.160001C8.7172532,12.445393,8.096601,11.262629,8.0999994,10ZM5.1999998000000005,8.665C4.4626184,8.6646547,3.8646049,9.2622023,3.8643746,9.9995832C3.8641446,10.736964,4.4617848,11.334885,5.1991665000000005,11.335C5.9365482,11.335114,6.5343747,10.737382,6.5343747,10C6.5345149,9.2628851,5.937113999999999,8.665204,5.1999998000000005,8.665ZM12,6.0999994C14.037499,6.0999994,15.708125,7.6624994,15.883124,9.6543741L17.787421000000002,9.6262493C17.695787,8.202179,17.08153,6.8620982,16.0625,5.8631244C14.953487,6.2849722,13.736968,5.5810857,13.549999,4.4093747C13.044752,4.2720385,12.52358,4.2020326,12,4.2011719C11.1085024,4.2000995,10.2288637,4.4054627,9.4300003,4.8011713L10.3575001,6.4636717C10.8720007,6.2243872,11.4326553,6.1006565,12.000078,6.1011715L12,6.0999994ZM14.732421,5.265625C15.371213,5.6342082,16.18786,5.4149623,16.556156,4.7760038C16.924453,4.1370463,16.704839,3.3204978,16.065715,2.9524889C15.426593,2.5844803,14.610143,2.8044608,14.242421,3.4437497C13.876216,4.0823627,14.09528,4.8968668,14.732421,5.265625Z" fill="#E95420" fill-opacity="1" style="mix-blend-mode:passthrough"/></g></g></g></svg>