<svg xmlns="http://www.w3.org/2000/svg" xmlns:xlink="http://www.w3.org/1999/xlink" fill="none" version="1.1" width="22" height="22" viewBox="0 0 22 22"><defs><clipPath id="master_svg0_415_0962725"><rect x="0" y="0" width="22" height="22" rx="0"/></clipPath><clipPath id="master_svg1_415_0962530"><rect x="-1" y="-1" width="24" height="24" rx="0"/></clipPath></defs><g clip-path="url(#master_svg0_415_0962725)"><g clip-path="url(#master_svg1_415_0962530)"><g><path d="M18.500002,1C19.880714,1,21.000006,2.1192884000000003,21,3.5L21,18.500002C21.000006,19.880714,19.880714,21.000006,18.500002,21L3.5,21C2.1192884000000003,21.000006,1,19.880714,1,18.500002L1,3.5C1,2.1192884000000003,2.1192884000000003,1,3.5,1L18.500002,1ZM19.190401,12.250401L16.240001,12.250401C15.436001,12.247202,14.777601,12.884801,14.777601,13.662401C14.777601,14.444001,15.436001,15.081602,16.240001,15.081602L18.233603,15.081602C18.662401,15.081602,19.012802,15.42,19.012802,15.835201C19.012802,16.248803000000002,18.662401,16.588802,18.233603,16.588802L15.337602,16.588802C15.247692,16.587581999999998,15.160911,16.621776,15.096003,16.684003C15.032437,16.745464,14.996378,16.829987,14.996002,16.918402999999998C14.999073,17.104231,15.151762,17.252628,15.337602,17.250402L18.287203,17.250402C19.091202,17.250402,19.749605,16.612802000000002,19.749605,15.831203C19.749605,15.051202,19.091202,14.418403,18.287203,14.418403L16.293602,14.418403C15.870968,14.424199,15.523087,14.087402,15.515202,13.664802C15.515202,13.251202,15.8648,12.911202,16.293602,12.911202L19.189602,12.911202C19.27951,12.912423,19.366293,12.878227,19.431202,12.816002C19.494616,12.754436,19.530647,12.669983,19.531202,12.581603C19.528131,12.395773,19.375443,12.247376,19.189602,12.249603L19.190401,12.250401ZM11.890401,12.261601L10.6184015,12.261601C9.5648012,12.261601,8.698401,13.1112,8.698401,14.152802L8.698401,15.350401C8.698401,16.387200999999997,9.5616007,17.242401,10.6184015,17.242401L11.890401,17.242401C12.944001,17.242401,13.810402,16.392801,13.810402,15.3496L13.810402,14.149601C13.810402,13.112801,12.947202,12.2616,11.890401,12.261601ZM7.0584006,12.261601C6.8791976,12.260713,6.7329612,12.404803,6.7312016,12.584001L6.7312016,14.771201C6.7312016,15.8,5.8760014,16.643200999999998,4.8328018,16.643200999999998L4.8048019,16.643200999999998C3.7616017,16.643200999999998,2.9048017,15.8,2.9048017,14.772802L2.9048017,12.584001C2.9026064,12.404673,2.7561394999999997,12.260709,2.5768019,12.261601C2.3975971,12.260713,2.2513611,12.404803,2.2496022,12.584001L2.2496022,14.7096C2.2496022,16.101601000000002,3.4064023,17.240002,4.8184023,17.240002C6.2312026,17.240002,7.3864021,16.102401,7.3864021,14.7096L7.3864021,12.584001C7.3842068,12.404673,7.2377391,12.260707,7.0584006,12.261601ZM11.712801,12.880001C12.5072,12.880001,13.155201,13.52,13.155201,14.301601L13.155201,15.196001L13.146401,15.351202C13.058433,16.075598,12.442513,16.619681,11.712801,16.617601L10.8024015,16.617601L10.6448002,16.608803C9.9189234,16.533905,9.3651333,15.925699,9.3584003,15.196001L9.3584003,14.301602L9.3671999,14.146401C9.4552402,13.421399,10.0720787,12.87711,10.8024015,12.880002L11.712801,12.880001ZM12.5424,5.1000004C12.2376,6.0472002,11.724002,6.9671998,11.1744,7.5704012C11.275199,7.707202,11.437599,8.022400900000001,11.4928,8.154400800000001C11.673598,7.9472013,11.855201,7.7000017,12.023999,7.4312015L12.023999,11.012802L12.568,11.012802L12.568,6.4752021C12.7616,6.0864015,12.931199,5.6736016,13.067201,5.2624011L12.5424,5.1000004ZM8.4752007,8.2376008L7.8871999,8.2376008C7.8488007,9.4272003,7.7296004,10.1176004,6.7360001,10.5128012C6.8672004,10.6248007,7.0320001,10.8504009,7.106401,11C8.2376008,10.5120001,8.4240003,9.6416006,8.474401,8.2376008L8.4752007,8.2376008ZM16.549599999999998,8.9416008L13.3048,8.9416008L13.3048,10.9872007L13.8112,10.9872007L13.8112,10.764801L16.0248,10.764801L16.0248,10.9688005L16.550401,10.9688005L16.550401,8.9416008L16.549599999999998,8.9416008ZM9.6496,8.2248001L9.0672007,8.2248001L9.0672007,10.1696005C9.0672007,10.7072001,9.1800003,10.8824005,9.6736002,10.8824005L10.1736002,10.8824005C10.5984011,10.8824005,10.7376003,10.6248007,10.7800007,9.6936007C10.5975714,9.6438665,10.4258938,9.5608749,10.2736006,9.4488001C10.2552013,10.2464008,10.2360001,10.3752003,10.1128006,10.3752003L9.781601,10.3752003C9.6616011,10.3752003,9.6488008,10.3495998,9.6488008,10.1624012L9.6488008,8.2248001L9.6504011,8.2248001L9.6496,8.2248001ZM7.0552006,9.4224005C6.2928004,9.6816006,5.5047998,9.9440012,4.9864004,10.0848007L5.1240005,10.6824007C5.8056011,10.4432001,6.4840007,10.1968002,7.1616006,9.9440012L7.0552006,9.4224005ZM16.0248,9.4247999L16.0248,10.2848005L13.812801,10.2848005L13.812801,9.4247999L16.0248,9.4247999ZM6.1128011,5.0328002C5.9024,5.6408,5.6264005,6.2231998,5.2872,6.7695994C5.1560001,6.9903994,5.0375996,7.1296,4.9127998,7.1576004C4.9936001,7.3288007,5.0927997,7.6456013,5.1248002,7.7752004C5.2248001,7.7304006,5.3695998,7.6912003,6,7.6000004C5.8321552,7.8559051,5.6511097,8.1029058,5.4576006,8.3400006C5.2624002,8.577600499999999,5.1200004,8.7272,4.9752004,8.7600002C5.0440006,8.9200006,5.1376004,9.2112007,5.1688004,9.3336C5.3128004,9.241601,5.5440001,9.1655998,7.0752001,8.8096004C7.0545831,8.6329703,7.0524383,8.4546733,7.0688004,8.2776008L6.0247998,8.4952006C6.4808221,7.9249821,6.8886271,7.3178225,7.2440004,6.6800003L6.7248001,6.3552003C6.6128006,6.5888004,6.4823999,6.8216004,6.3495998,7.0464005L5.7200003,7.1112003C6.1104054,6.5450101,6.4447823,5.9421682,6.7184,5.3112001L6.1128011,5.0328002ZM16.4824,7.9472003L13.394401,7.9472003L13.394401,8.4224005L16.4824,8.4224005L16.4824,7.9472003ZM8.98,5.0512004L8.4240003,5.1888003C8.535999799999999,5.4312,8.6616011,5.7399998,8.7240009,5.9471998L7.2680011,5.9471998L7.2680011,6.4815993L8.3320017,6.4815993C8.0560017,6.8672004,7.6800013,7.3687992,7.5504007,7.4927993C7.4319887,7.601769,7.2838411,7.673058,7.1248002,7.6975994C7.1871996,7.8311992,7.2872,8.135199100000001,7.3128009,8.2895989C7.4984016,8.206399399999999,7.781601,8.1671987,9.9928017,7.9415979C10.0928011,8.115998300000001,10.1736002,8.277598399999999,10.230401,8.4055982L10.7312012,8.1295986C10.5496006,7.7423992,10.1440001,7.1359992,9.8112001,6.6863995L9.3560009,6.9239993C9.4736004,7.0920005,9.5936003,7.278399,9.712801,7.4663997L8.212800999999999,7.599999C8.4671998,7.2663994,8.7752004,6.8415999,9.0248003,6.4815993L10.6928005,6.4815993L10.6928005,5.9471998L8.9184012,5.9471998L9.3304014,5.8272004C9.2336254,5.5599504,9.1164799,5.3005219,8.98,5.0512004ZM16.48,7.0360007L13.392,7.0360007L13.392,7.5112004L16.48,7.5112004L16.48,7.0360007ZM14.880001,5.0680003L14.375201,5.2680006C14.536,5.5248013,14.711201,5.8752003,14.806402,6.1128011L12.944001,6.1128011L12.944001,6.6000004L16.955202,6.6000004L16.955202,6.112L14.900002,6.112L15.337601,5.9119997C15.21243,5.616415,15.059196,5.3335195,14.880001,5.0672002L14.880001,5.0680003Z" fill="#14A5EF" fill-opacity="1" style="mix-blend-mode:passthrough"/></g></g></g></svg>